<svg xmlns="http://www.w3.org/2000/svg" width="361" height="281" viewBox="0 0 361 281">
  <g id="Group_85" data-name="Group 85" transform="translate(0 -64)">
    <path id="Path_21" data-name="Path 21" d="M790,86H429V270l227,97,118-32h16Z" transform="translate(-429 -22)" fill="#cbcbca"/>
    <g id="Group_24" data-name="Group 24" transform="translate(-13.71 -188.705)">
      <g id="Group_20" data-name="Group 20">
        <path id="Path_84" data-name="Path 84" d="M183.32,310.351c-.361,14.392,2.009,29.964-6.981,42.363-6.449,8.893-17.918,19.31-11.281,31.32.71,1.285,2.682.135,1.97-1.152-7.355-13.308,10.234-24.556,15.008-35.4,5.1-11.6,3.258-24.845,3.566-37.132a1.142,1.142,0,0,0-2.282,0Z" fill="#c15252" stroke="#e8e8e8" stroke-miterlimit="10" stroke-width="1"/>
      </g>
      <g id="Group_21" data-name="Group 21">
        <path id="Path_85" data-name="Path 85" d="M193.269,313.427c-.05,9.437-.351,18.7-3.249,27.761-2.358,7.377-4.853,14.377-4.173,22.243a39.854,39.854,0,0,0,6.011,17.835,38.118,38.118,0,0,0,6.2,7.5c1.418,1.318,3.6,3.866,5.746,3.238a1.167,1.167,0,0,0,.8-1.4l-.058-.27a1.12,1.12,0,0,0-.8-.8l-.329-.071a1.155,1.155,0,0,0-1.4.8l-.033.179c-.27,1.435,1.929,2.05,2.2.606l.034-.178-1.4.8-.41-.456.8-1.4c-1.442.421-5.7-4.808-6.593-5.875a37.165,37.165,0,0,1-8.437-27.166c.77-7.521,4.383-14.371,5.868-21.738,1.432-7.1,1.479-14.382,1.517-21.6a1.142,1.142,0,0,0-2.282,0Z" fill="#c15252" stroke="#e8e8e8" stroke-miterlimit="10" stroke-width="1"/>
      </g>
      <path id="Path_86" data-name="Path 86" d="M202.87,348.594s-19.41,10.878-21.2,14.79,5.521,6.825,5.521,6.825l12.171-4.783,15.987-16.832Z" fill="#f7b89f"/>
      <path id="Path_87" data-name="Path 87" d="M91.513,371.764s-6.524,5.989-14.236,5.989-9.885,3.955-10.083,6.525c6.525,2.6,27.087,1.087,27.087,1.087l3.263-7.513Z" fill="#495059"/>
      <path id="Path_88" data-name="Path 88" d="M83.493,413.4s4.318-32.76,16.638-36.073,54.316-8.658,56.04-8.658,10.985,23.579,10.985,23.579l-5.492,17.307Z" fill="#a5cace"/>
      <path id="Path_89" data-name="Path 89" d="M170.365,408.7s-30.294-17.135-86.188.509c-5.374,13.661,2.154,25.708,10.484,26.514s40.524-11.823,61.51-8.868c24.872,3.5,50.137,5.743,75.166,2.477,12.037-1.571,24.525-4.961,34.664-12.155,11.813-8.382,18-21.427,24.288-34.047,10.212-20.5,32.6-49.725,34.934-62.161,3.225-17.188-40.749-43.466-69.251-33.716-35.737,5.995,7.677,76,7.677,76l-27.293,21.869-32.667,18.557Z" fill="#86abad"/>
      <path id="Path_90" data-name="Path 90" d="M269.055,289.72c.812.537,41.657,10.124,42.2,22.529.223,5.155-2.736,10.968-5.208,15.327-3.1,5.463-6.773,10.654-10.013,16.043-6.927,11.523-14.3,23.352-19.225,35.839-2.11,5.356-10.437,22.943-18.761,20.169-5.643-1.882-20.691-38.253-20.691-38.253l-2.045-29.2-10.854,8.061,17.116-34.4Z" fill="#a5cace"/>
      <path id="Path_91" data-name="Path 91" d="M181.386,371.45s-32.666-25.216-49.215-29.7a4.9,4.9,0,0,0-3.387.338c-5.97,2.85-25.861,14.084-39.824,31.621,24.454,1.6,31.229-.318,31.229-.318l26.335-10.012,15.14,14.553S175.133,387.344,181.386,371.45Z" fill="#545c72"/>
      <path id="Path_92" data-name="Path 92" d="M85.845,401.486c14.424.326,27.868-3.144,41.814-6.84a71.043,71.043,0,0,1,12.269-2.512c8.705-.718,17.3,1.881,25.652,4.451l-35.989-25.3L90,387.159Z" fill="#86abad" opacity="0.33"/>
      <path id="Path_93" data-name="Path 93" d="M84.711,382.483s-4.495,9-12.678,12.131-8.888,8.207-8.055,11.015c7.978.111,29.189-9.835,29.189-9.835l.414-9.3Z" fill="#495059"/>
      <path id="Path_94" data-name="Path 94" d="M181.386,379.28S143.3,346.151,129.6,346.151s-47.9,40.912-47.9,40.912l11.6,5.994s23.944-4.431,38.993-15.726c1.881,5.44,18.7,33.279,39.583,27.519S181.386,379.28,181.386,379.28Z" fill="#676d82"/>
      <path id="Path_95" data-name="Path 95" d="M294.485,290.029c-4.893-1.489-10.5.03-14.939,2.568-3.193,1.825-5.572,4.766-7.81,7.683-2.617,3.412-5.149,6.887-7.681,10.361a67.014,67.014,0,0,0-6.266,9.738c-5.128,10.452-4.788,23.482-12.164,32.491-2.761,3.372-6.485,5.99-8.6,9.8a14.488,14.488,0,0,0,1.4,15.75l25.219,19.665s5.831,10.816,16.641,3.543c5.419-7.882,9.537-19.372,19.911-35.881s25.183-37.314,25.19-47.043C325.4,305.791,300.021,291.714,294.485,290.029Z" fill="#86abad" opacity="0.33"/>
      <path id="Path_96" data-name="Path 96" d="M282.394,367.26s-19.994-28.231-56.718-29.479" fill="none" stroke="#86abad" stroke-miterlimit="10" stroke-width="1"/>
      <path id="Path_97" data-name="Path 97" d="M300.674,338.942s-25.045-28.573-59.891-31.52" fill="none" stroke="#86abad" stroke-miterlimit="10" stroke-width="1"/>
      <path id="Path_98" data-name="Path 98" d="M180.04,370.426s5.242-6.336,22.352-2.855c2.142-10.175,6.248-13.924,6.248-13.924l-8.563-7.5s18.428-15.579,35.23-12.318,17.363,7.514,17.363,7.514l-14.038,28.726-19.163,19.295-25.646-1.086-20.409,1.649Z" fill="#e28269"/>
      <path id="Path_99" data-name="Path 99" d="M183.465,367.981c-.339-.318,11.264-8.291,17.954-.439,4.094,5.854,1.6,8.621.577,8.729s-1.919-5.333-1.919-5.333,2.769,6.217,0,6.342-2.623-4.858-2.623-4.858-.416,4.3-2.7,4.86-2.869-3.886-2.869-3.886S188.683,372.868,183.465,367.981Z" fill="#f7b89f"/>
      <path id="Path_100" data-name="Path 100" d="M261.187,276.815" fill="none" stroke="#363c51" stroke-miterlimit="10" stroke-width="1"/>
      <g id="Group_22" data-name="Group 22">
        <path id="Path_101" data-name="Path 101" d="M263.027,281.232s-5.072-5.5-2.611-10.782,1.569-6.2-.674-5.924-5.888,4.466-5.8,9.2c.456-4.648,1.914-10.116-1-10.025s-17.248,11.931-9.945,24.1,20.03-1.318,20.03-1.318Z" fill="#363c51"/>
        <path id="Path_102" data-name="Path 102" d="M245.4,328.225c8.261,2.715,12.965-1.358,19.752-11.808-7.4-8.1,0-21.265,0-21.265q1.336-.96,2.679-1.892a43.192,43.192,0,0,0-6.215-5l-8.944-4.53s-5.112-3.02-14.637,9.293-11.2,22.555.42,32.428a45.841,45.841,0,0,1-6.227,8.692s2.92,12.733,18.637,7.819C241.45,340.019,242.958,332.005,245.4,328.225Z" fill="#f7b89f"/>
        <path id="Path_103" data-name="Path 103" d="M267.829,293.26q-1.343.934-2.679,1.892s-7.4,13.16,0,21.265c-6.787,10.45-11.491,14.523-19.752,11.808-2.44,3.78-3.948,11.794,5.465,13.737.586-.183,1.184-.383,1.807-.617,0,0-2.44-3.717,1.626-8.131,5.924.348,15.914-7.9,20.56-20.793C277.6,304.8,272.479,297.754,267.829,293.26Z" fill="#ea9781"/>
        <path id="Path_104" data-name="Path 104" d="M246.42,311.219l-3.214-2.912,6.427-5.122" fill="none" stroke="#363c51" stroke-miterlimit="10" stroke-width="1"/>
        <path id="Path_105" data-name="Path 105" d="M244.641,298.772c-.415,1-1.21,1.622-1.775,1.387s-.686-1.236-.27-2.237,1.211-1.621,1.776-1.387S245.057,297.772,244.641,298.772Z" fill="#363c51"/>
        <path id="Path_106" data-name="Path 106" d="M262.61,310.3c-.416,1-1.211,1.622-1.776,1.387s-.685-1.236-.27-2.237,1.211-1.621,1.776-1.387S263.026,309.3,262.61,310.3Z" fill="#363c51"/>
        <path id="Path_107" data-name="Path 107" d="M247.524,314.361s5.632,2.495,8.448-2.112" fill="none" stroke="#363c51" stroke-miterlimit="10" stroke-width="1"/>
        <path id="Path_108" data-name="Path 108" d="M273.96,316.417s-9.023-2.888-4.375-11.85c-3.919-.943-3.827-1.034-3.1-2.219a8.119,8.119,0,0,1,2.788-2.187s-3.973,1.141-5.067-.432,2.279-2.667,2.279-2.667c-.423.137-1.893-.753-2.272-.915a34.819,34.819,0,0,1-9.34-5.339c-1.506-1.319-2.5-3.11-4-4.437a8.3,8.3,0,0,0-5.475-2.159l15.167-6.562s2.641,5.924,11.663,10.754,11.3,10.572,9.478,12.668c4.284-1.343,4.922-.273,4.557.912s-4.283,1.458-4.283,1.458,4.458.547,4.371,2.187-4.918.182-4.918.182S280.886,316.451,273.96,316.417Z" fill="#363c51"/>
        <path id="Path_109" data-name="Path 109" d="M270.541,315.035s6.691-2.571,7.956,4.059c.961,5.043-8.218,6.47-9.442,1.4C270.279,316.122,270.541,315.035,270.541,315.035Z" fill="#e2897a"/>
        <path id="Path_110" data-name="Path 110" d="M277.15,317.226c-2.841-.952-5.381,1.347-6.692,3.68-.243.433.445.778.687.347a9.131,9.131,0,0,1,1.145-1.6c1.257-.173,3.343-.451,4.28.483.352.35.861-.228.51-.577-.882-.879-2.49-.91-3.848-.787a3.942,3.942,0,0,1,3.759-.791C277.461,318.137,277.614,317.382,277.15,317.226Z" fill="#363c51"/>
      </g>
      <path id="Path_111" data-name="Path 111" d="M164.22,396.594s-3.876,8.79,1.128,17.314,37.429,5.322,62.448,1.319,32.024-6.8,34.626-10.808.617-11.563.617-11.563l-10.369-2.448Z" fill="#719696"/>
      <path id="Path_112" data-name="Path 112" d="M170.365,394.865s-8.731-1.068-6.85,6.587,7.524,14.374,38.427,11.955,58.384-6.987,61.707-15.317-17.629-18.81-17.629-18.81Z" fill="#afd6d8"/>
      <path id="Path_113" data-name="Path 113" d="M168.384,409.26c.6.552,3.695-.608,4.338-.756,5.937-1.376,11.972-2.818,18.091-2.943,4.953-.1,9.895.366,14.847.337a117.97,117.97,0,0,0,17.619-1.549,80.269,80.269,0,0,0,16.7-3.986A44.97,44.97,0,0,0,258.5,387.532L248.06,379.5,208.489,395.36H173.414l-8.633.486S159.387,400.907,168.384,409.26Z" fill="#86abad" opacity="0.33"/>
      <path id="Path_114" data-name="Path 114" d="M233.6,368.845l-3.243-3.419,6.689-9.756s-17.269,12.221-17.575,17.881c-6.427-6.818-13.557-7.075-13.557-7.075s7.333,5.532,8.233,7.976c-6.3-3.073-9.134-3.073-9.134-3.073l5.827,5.881s-22.551,2.886-25.9,8.144,9.391,5,9.391,5l30.12-5.169Z" fill="#ea9781" opacity="0.3"/>
      <path id="Path_115" data-name="Path 115" d="M237.675,364.07l-16.32,19.114s-12.2-4.117-32.935,4.558c-1.617,11.321-1.176,12.645-1.176,12.645s30.141,2.352,39.992,0c9.41-7.058,24.512-21.026,24.512-21.026Z" fill="#f7b89f"/>
      <path id="Path_116" data-name="Path 116" d="M226.983,376.593c-.827-.19,10.9,2.005,13.878,12.532l2.812-2.475s-.539-11.234-13.617-13.656C228.927,374.241,226.983,376.593,226.983,376.593Z" fill="#c15252"/>
      <path id="Path_117" data-name="Path 117" d="M164.877,378.166s-3.225-4.719-7.065.657-1.024,18.432,9.344,17.664C165.876,388.423,164.877,378.166,164.877,378.166Z" fill="#ea9781"/>
      <path id="Path_118" data-name="Path 118" d="M252.67,341.325s20.238,21.049-2.256,44.079c-6.741-7.141-16.816-16.559-16.816-16.559S238.322,346.519,252.67,341.325Z" fill="#e28269"/>
      <circle id="Ellipse_3" data-name="Ellipse 3" cx="8.931" cy="8.931" r="8.931" transform="translate(161.434 374.975)" fill="#c15252"/>
      <path id="Path_119" data-name="Path 119" d="M159.756,382.751s10.011,5.865,17.35-4.7c2.768,1.657,3.183,12.334,3.183,12.334L170.9,395.34,162,389.125Z" fill="#373c44" opacity="0.08"/>
      <path id="Path_120" data-name="Path 120" d="M188.971,389.125s.009-6.227-4.886-6.374-14.129-1.4-14.921-2.85c-2.774,1.35,3.169,7.395,8.187,7.792a75.19,75.19,0,0,0-8.25,5.045l-6.8-5s4.846-8.766,1.9-10.283-8.234,6.011-4.14,13.274a28.581,28.581,0,0,0,11.356,10.7l15.836-1.045Z" fill="#f7b89f"/>
      <path id="Path_121" data-name="Path 121" d="M230.862,372.05s8.353,4.394,9.921,11.26a139.513,139.513,0,0,1-15.107,12.03s-41.9-1.32-55.311,6.092l16.879-1.045s29.36,2.8,39.992,0c9.017-6.613,20.794-17.636,20.794-17.636L233.6,368.845Z" fill="#ea9781" opacity="0.3"/>
      <path id="Path_122" data-name="Path 122" d="M191.886,373.4s.093,3.847,2.869,3.886,3.174-6.355,2.577-7.073" fill="none" stroke="#ea9781" stroke-miterlimit="10" stroke-width="1"/>
      <path id="Path_123" data-name="Path 123" d="M197.572,374.534s.471,2.9,2.5,2.746,1.284-6.728,0-7.989" fill="none" stroke="#ea9781" stroke-miterlimit="10" stroke-width="1"/>
      <path id="Path_124" data-name="Path 124" d="M201.289,376.054s1.855,1.134,2.4-1.852-3.437-12.783-13.59-10.838" fill="none" stroke="#ea9781" stroke-miterlimit="10" stroke-width="1"/>
      <path id="Path_125" data-name="Path 125" d="M250.2,341.962s8.023,25.941-4.8,38.253c3.64,3.746,5.016,5.189,5.016,5.189a30.473,30.473,0,0,0,2.256-44.079Z" fill="#ea9781" opacity="0.3"/>
      <path id="Path_126" data-name="Path 126" d="M239.636,302.334a1.563,1.563,0,1,0,2.162-.46A1.563,1.563,0,0,0,239.636,302.334Z" fill="#e2897a" opacity="0.68"/>
      <path id="Path_127" data-name="Path 127" d="M258.338,313.693a1.563,1.563,0,1,0,2.162-.459A1.563,1.563,0,0,0,258.338,313.693Z" fill="#e2897a" opacity="0.68"/>
      <path id="Path_128" data-name="Path 128" d="M216.983,382.393s3.633,2.391,4.74,4.906a7.734,7.734,0,0,0,4.828-.914s-.226-4.322-3.382-5.325A14.189,14.189,0,0,0,216.983,382.393Z" fill="#fff"/>
      <path id="Path_129" data-name="Path 129" d="M81.691,387.063l5.983-9.481s9.768,5.9,13.095,14.5a58.912,58.912,0,0,1-7.848,1.193S84.085,389.888,81.691,387.063Z" fill="#798299"/>
      <path id="Path_130" data-name="Path 130" d="M91.23,377.863l-2.922-3.723s1.273-6.616,3.6-8.19c3.834,1.027,7.942,9.653,7.942,9.653Z" fill="#676d82"/>
      <path id="Path_131" data-name="Path 131" d="M183.178,306.557c-.646.108-6.89.108-6.459-15.071s7.105-12.917,12.056-12.917,11.949-1.938,14.963,3.229,2.476,24.436-1.4,25.3-6.459-.323-6.459,1.938.215,7.32-1.938,6.782.108-8.72-1.4-9.043-6.136-.968-6.459.969-.323,6.674-1.83,6.351S183.178,306.557,183.178,306.557Z" fill="#c9c9c9"/>
      <path id="Path_132" data-name="Path 132" d="M183.474,284.271c-2.562,1.081-4.079,3.956-4.569,6.583a14.86,14.86,0,0,0,.648,7.329c.636,1.929,1.693,3.883,3.52,4.771s3.994.515,6.023.691c2.01.175,3.954.908,5.972.949a5.611,5.611,0,0,0,2.969-.674,6.648,6.648,0,0,0,2.344-2.785,17.529,17.529,0,0,0,1.792-10.4,7.918,7.918,0,0,0-2.648-5.375,6.612,6.612,0,0,0-3.682-1.209,16.8,16.8,0,0,0-2.12.124,15.774,15.774,0,0,1-2.327-.12C188.763,283.956,186.013,283.2,183.474,284.271Z" fill="#c15252"/>
      <path id="Path_133" data-name="Path 133" d="M180.129,282.554a.243.243,0,0,0,.118.184.389.389,0,0,0,.3.005c.97-.266,1.714-1.022,2.689-1.265.481-.119,1.676-.518,1.49-1.232-.135-.517-1.261-.68-1.718-.615a3.082,3.082,0,0,0-1.913,1.209C180.919,281.059,180.059,282.081,180.129,282.554Z" fill="#fff"/>
      <g id="Group_23" data-name="Group 23">
        <path id="Path_134" data-name="Path 134" d="M220.675,383.018c-7.489.333-19.117,2.077-19.456,11.87-.36,10.439,14.378,12.529,19.916,18.8,4.009,4.537,3.529,9.964,6.166,15.012,2.089,4,6.285,5.623,10.449,6.633,4.04.979,8.483,1.328,11.967-1.345a10.8,10.8,0,0,0,4.1-9.693c-.141-1.448-2.424-1.463-2.282,0,1.068,11-12.275,10.845-19.094,6.655-4.122-2.532-4.133-7.161-5.38-11.285a20.138,20.138,0,0,0-4.311-7.591c-4.815-5.408-12.868-6.562-17.32-12.089-3.365-4.176-1.6-9.492,2.835-12.136,3.706-2.211,8.217-2.36,12.412-2.547,1.462-.065,1.47-2.347,0-2.281Z" fill="#c15252" stroke="#e8e8e8" stroke-miterlimit="10" stroke-width="1"/>
      </g>
      <path id="Path_135" data-name="Path 135" d="M190.212,291.883s.1-5.507-3.4-3.964c-5.539,2.439,3.418,11.333,3.418,11.333s10.507-7.064,5.628-10.52C193.32,286.937,190.212,291.883,190.212,291.883Z" fill="#fff"/>
    </g>
  </g>
</svg>
