<svg xmlns="http://www.w3.org/2000/svg" xmlns:xlink="http://www.w3.org/1999/xlink" width="361" height="281" viewBox="0 0 361 281">
  <defs>
    <clipPath id="clip-path">
      <path id="Path_83" data-name="Path 83" d="M330.091,233.348a35.479,35.479,0,0,0-2.228-6.221V96.445H60.357V242.014h.458a59.36,59.36,0,0,0,12.67,30.838c12.907,15.763,33.892,23.5,54.264,23.518,19.609.019,39.006-6.4,58.534-4.618,22.561,2.056,43.035,14.85,65.563,17.236,32.856,3.479,66.642-18.6,76.646-50.09C331.109,250.659,332.222,241.727,330.091,233.348Z" transform="translate(-60.357 -96.445)" fill="none"/>
    </clipPath>
    <linearGradient id="linear-gradient" x1="0.689" y1="0.172" x2="0.226" y2="0.884" gradientUnits="objectBoundingBox">
      <stop offset="0" stop-color="#624cd5"/>
      <stop offset="0.999" stop-color="#2d2796"/>
    </linearGradient>
    <linearGradient id="linear-gradient-2" x1="0.32" y1="0.198" x2="0.756" y2="0.975" gradientUnits="objectBoundingBox">
      <stop offset="0" stop-color="#483889"/>
      <stop offset="0.413" stop-color="#463686"/>
      <stop offset="0.707" stop-color="#42327c"/>
      <stop offset="0.963" stop-color="#3b2b6d"/>
      <stop offset="0.993" stop-color="#3a2a6b"/>
    </linearGradient>
    <linearGradient id="linear-gradient-3" x1="1.046" y1="0.834" x2="-0.14" y2="0.182" gradientUnits="objectBoundingBox">
      <stop offset="0" stop-color="#fff"/>
      <stop offset="0.999" stop-color="#d8e7ec"/>
    </linearGradient>
    <linearGradient id="linear-gradient-4" x1="0.753" y1="0.193" x2="0.099" y2="1.146" xlink:href="#linear-gradient-3"/>
    <linearGradient id="linear-gradient-5" x1="1.131" y1="1.107" x2="0.342" y2="0.422" xlink:href="#linear-gradient-3"/>
    <linearGradient id="linear-gradient-6" x1="0.734" y1="0.159" x2="0.361" y2="0.676" gradientUnits="objectBoundingBox">
      <stop offset="0" stop-color="#3a2a6b"/>
      <stop offset="0.992" stop-color="#1d103e"/>
    </linearGradient>
    <linearGradient id="linear-gradient-7" x1="0.214" y1="1.024" x2="0.874" y2="0.312" xlink:href="#linear-gradient-6"/>
  </defs>
  <g id="Group_84" data-name="Group 84" transform="translate(0 -64)">
    <path id="Path_21" data-name="Path 21" d="M790,86H429V270l227,97,118-32h16Z" transform="translate(-429 -22)" fill="#cbcbca"/>
    <g id="Group_19" data-name="Group 19" transform="translate(-9.426 -28.025)">
      <path id="Path_22" data-name="Path 22" d="M171.759,103.493c-13.084,2.6-25.816,10.758-30.374,23.3-3.5,9.621-2.239,21.391-9.181,28.915-4.338,4.7-10.867,6.511-16.879,8.7-21.583,7.867-40.65,23.865-49.638,45.006s-6.757,47.326,7.8,65.1c12.907,15.763,33.892,23.5,54.264,23.518,19.609.019,39.006-6.4,58.534-4.618,22.561,2.056,43.035,14.85,65.563,17.236,32.856,3.479,66.642-18.6,76.646-50.09,2.618-8.24,3.73-17.171,1.6-25.55-3.644-14.326-16.11-24.8-29.322-31.427s-27.717-10.419-40.846-17.211c-3.663-1.9-7.334-4.137-9.593-7.588-4.855-7.416-1.612-17.136-.164-25.882,1.545-9.337.712-19.294-3.783-27.622-5.666-10.5-17.349-17.091-28.821-19.034C202.549,103.7,186.941,100.474,171.759,103.493Z" transform="translate(-7.849 -1.661)" fill="#63aabc"/>
      <g id="Group_11" data-name="Group 11" transform="translate(210.731 104.323)">
        <g id="Group_8" data-name="Group 8" transform="translate(30.591 0)">
          <path id="Path_23" data-name="Path 23" d="M367.164,160.73a68.937,68.937,0,0,1-4.8,17.874c-.162.366-.325.731-.5,1.089-.266.558-.546,1.113-.84,1.654l-.008.006c-3.081,5.788-7.369,10.877-11.854,15.683-5.234,5.614-10.87,11-17.583,14.718a.48.48,0,0,1-.4.036c-.343-.1-.721-.525-1.106-1.185-2.384-4.029-5.377-16.865-5.525-18.96a87.543,87.543,0,0,1,2.024-23.274,103.507,103.507,0,0,1,4.965-16.745v-.007c.27-.686.541-1.373.825-2.05a104.492,104.492,0,0,1,13.37-23.293,100.421,100.421,0,0,1,6.757-8l.15-.152,1.236-1.281a95.594,95.594,0,0,1,10.378-9.219c.069-.058.146-.109.216-.167.222.8.43,1.6.63,2.4a121.3,121.3,0,0,1,3.505,24.047c.028.563.048,1.132.069,1.7A137.038,137.038,0,0,1,367.164,160.73Z" transform="translate(-324.411 -107.462)" fill="#ed3833"/>
          <path id="Path_24" data-name="Path 24" d="M333.8,151.618v.007q4.661,14.628,8.033,29.621a.682.682,0,0,0,.259.4q-2.573,7.7-5.18,15.391c-.175.106-.35.22-.532.325a.783.783,0,0,0-.019,1.313q-2.016,5.966-4.026,11.934c.385.66.763,1.089,1.106,1.185q2.329-6.909,4.671-13.821,12.931-7.8,25.164-16.615l.008-.007c.293-.541.573-1.1.84-1.654.176-.358.338-.723.5-1.089q-12.518,9.182-25.8,17.269c3.751-11.112,7.487-22.232,11.091-33.393,1.818-5.643,3.525-11.312,5.217-16.988.071-.065.14-.124.2-.189a.645.645,0,0,0,.212-.355,143.4,143.4,0,0,0,15.387-9.338c-.021-.569-.041-1.138-.069-1.7a141.122,141.122,0,0,1-15.043,9.269c.854-2.845,1.709-5.7,2.585-8.546,2.561-8.37,6.434-16.4,8.953-24.77l-.63-2.4c-2.427,8.79-6.773,17.285-9.46,26.009-.477,1.544-.94,3.088-1.411,4.633a212.448,212.448,0,0,0,.277-21.257l-1.236,1.281-.15.152a175.288,175.288,0,0,1-.829,25.284.61.61,0,0,0,.149.5.2.2,0,0,0-.02.062.051.051,0,0,1-.03.012.734.734,0,0,0-.288,1.043c-1.68,5.613-3.359,11.219-5.156,16.793q-2.815,8.705-5.719,17.381-3.469-15.081-8.233-29.789Z" transform="translate(-326.67 -107.462)" fill="#ffe6e8"/>
        </g>
        <g id="Group_9" data-name="Group 9" transform="translate(0 21.29)">
          <path id="Path_25" data-name="Path 25" d="M311.479,166.8a52.846,52.846,0,0,1,6.175,12.775c.089.294.178.587.255.883.125.456.241.92.342,1.38v.008a57.921,57.921,0,0,1,.98,15.041c-.224,5.881-.8,11.828-2.828,17.352a.367.367,0,0,1-.213.22,1.873,1.873,0,0,1-1.236-.133c-3.4-1.143-11.572-7.092-12.707-8.235a67.128,67.128,0,0,1-10.488-14.52,79.352,79.352,0,0,1-5.51-12.205l0,0c-.187-.534-.374-1.068-.548-1.6a80.13,80.13,0,0,1-3.913-20.217,76.86,76.86,0,0,1-.086-8.026l.011-.163.076-1.363a73.191,73.191,0,0,1,1.4-10.55c.011-.069.03-.137.041-.205.528.35,1.05.712,1.567,1.075a93.009,93.009,0,0,1,14.084,12.2c.3.312.595.632.892.952A104.951,104.951,0,0,1,311.479,166.8Z" transform="translate(-281.63 -137.236)" fill="#63aabc"/>
          <path id="Path_26" data-name="Path 26" d="M286.27,179.363l0,0q10.035,6.153,19.5,13.163a.524.524,0,0,0,.349.1q2.367,5.76,4.706,11.527c-.049.149-.094.3-.146.455a.6.6,0,0,0,.646.771q1.82,4.473,3.644,8.943a1.873,1.873,0,0,0,1.236.133Q314.1,209.285,312,204.1q3.6-11,6.277-22.252v-.008c-.1-.461-.217-.924-.342-1.38-.077-.3-.166-.589-.255-.883q-2.663,11.6-6.317,22.948c-3.392-8.328-6.8-16.653-10.3-24.936-1.773-4.186-3.623-8.33-5.485-12.472.008-.074.019-.142.023-.212a.5.5,0,0,0-.054-.312,109.948,109.948,0,0,0,4.249-13.129c-.3-.32-.594-.641-.892-.952a108.239,108.239,0,0,1-4.084,12.917c-.93-2.079-1.863-4.162-2.783-6.255-2.708-6.139-4.483-12.739-7.217-18.86l-1.567-1.075c3,6.318,4.732,13.425,7.544,19.834.5,1.135,1,2.263,1.5,3.4a162.769,162.769,0,0,0-10.491-12.473l-.076,1.363-.011.163a134.4,134.4,0,0,1,12.19,15.088.47.47,0,0,0,.338.217.148.148,0,0,0,.02.046.041.041,0,0,1-.011.021.564.564,0,0,0,.355.751c1.838,4.1,3.673,8.193,5.423,12.328q2.729,6.462,5.391,12.952-9.57-7.013-19.706-13.161Z" transform="translate(-281.656 -137.236)" fill="#ffe6e8"/>
        </g>
        <g id="Group_10" data-name="Group 10" transform="translate(51.5 47.808)">
          <path id="Path_27" data-name="Path 27" d="M437.347,174.321a41.471,41.471,0,0,0-4.566,4.346,70.45,70.45,0,0,0-9.68,14.265q-.44.811-.858,1.624c-.312.6-.618,1.193-.923,1.79-2.194,4.324-4.261,8.739-6.53,13.013q-.379.73-.777,1.437A77.1,77.1,0,0,1,408,220.3c-.49.651-1,1.3-1.525,1.936h-.007c-.6.735-1.237,1.446-1.882,2.149h-.007c-5.09,5.447-11.5,9.7-18.8,10.86a37.068,37.068,0,0,1-11.777-.292,30.22,30.22,0,0,1-10.581-3.422,24.638,24.638,0,0,1-4.732-3.567c-.349-.348-.676-.693-.988-1.051-10.481-11.893,1.186-29.309,14.322-38.378,1.035-.717,2.086-1.383,3.131-1.984a33.692,33.692,0,0,1,7.079-3.163,56.186,56.186,0,0,1,12.109-2.1h.007c1.07-.089,2.146-.15,3.227-.2a.007.007,0,0,1,.008-.006c4.21-.193,8.453-.182,12.657-.3a.964.964,0,0,1,.144,0v-.007c.67-.019,1.346-.036,2.024-.075,7.64-.32,15.436-1.336,22.137-4.763.014-.006.023-.019.038-.025A29.376,29.376,0,0,0,437.347,174.321Z" transform="translate(-353.652 -174.321)" fill="#ed3833"/>
          <path id="Path_28" data-name="Path 28" d="M359.32,226.914q1.945-2.441,4.033-4.732a58.633,58.633,0,0,1,8.047-30.065c.68-1.166,1.429-2.369,2.242-3.581l3.131-1.984a67.663,67.663,0,0,0-4.768,7.364,57.178,57.178,0,0,0-7.219,26.722,100.662,100.662,0,0,1,8.64-8.026.773.773,0,0,1,.005-.294,50.145,50.145,0,0,1,22.531-31.035h.007c1.07-.089,2.146-.15,3.227-.2a48.853,48.853,0,0,0-24,30.09,128.7,128.7,0,0,1,16.362-10.916c4.293-2.44,8.621-4.8,12.969-7.145a.28.28,0,0,1,.017-.107A38.975,38.975,0,0,1,412,180.779v-.007l2.024-.075a37.434,37.434,0,0,0-7.565,11.377q5.514-2.968,11.035-5.935c6.124-3.322,12.705-6.373,18.667-10.2.014-.006,2.781-1.607,2.8-1.613l-4.566,4.346c-4.535,2.662-9.3,4.98-13.865,7.452q-6.717,3.634-13.445,7.252c1.808,1.284,4.834.927,6.828.871a57.228,57.228,0,0,0,7.946-.766c.962-.157,1.912-.343,2.857-.545l-.858,1.624a55.231,55.231,0,0,1-5.488.823c-3.493.351-9.785,1.568-12.651-1.262-3.413,1.845-6.811,3.69-10.205,5.565q-3.888,2.146-7.6,4.459a74.6,74.6,0,0,0,28.49,5.219l-.777,1.437a75.933,75.933,0,0,1-28.82-5.543.659.659,0,0,1-.3-.242A116.551,116.551,0,0,0,369.9,217.664c3.931.586,7.4,2.366,11.126,3.831a41.061,41.061,0,0,0,12.009,2.805,35.122,35.122,0,0,0,15.049-2.06h.007l-.232.266-1.657,1.882H406.2a35.908,35.908,0,0,1-10.147,1.449,41.777,41.777,0,0,1-12.08-1.792c-5.227-1.58-9.911-4.646-15.434-5.1a90.3,90.3,0,0,0-8.228,9.019Z" transform="translate(-355.267 -174.321)" fill="#ffe6e8"/>
        </g>
      </g>
      <g id="Group_15" data-name="Group 15" transform="translate(32.812 144.5)">
        <g id="Group_12" data-name="Group 12" transform="translate(0 89.577)">
          <path id="Path_29" data-name="Path 29" d="M70.126,302.608a51.352,51.352,0,0,1,10.86,8.5c.2.218.408.436.6.661.3.345.6.7.89,1.058l0,.007a56.289,56.289,0,0,1,7.3,12.7c2.325,5.226,4.374,10.661,4.968,16.349a.354.354,0,0,1-.092.284,1.82,1.82,0,0,1-1.135.413c-3.458.461-13.133-1.228-14.614-1.738a65.217,65.217,0,0,1-15.371-8.173A77.068,77.068,0,0,1,53.5,324.382l-.005,0c-.392-.385-.784-.771-1.166-1.163a77.916,77.916,0,0,1-12.077-15.959,74.76,74.76,0,0,1-3.514-6.965l-.06-.147-.518-1.221a71.135,71.135,0,0,1-3.3-9.8c-.02-.065-.032-.132-.051-.2.61.079,1.22.171,1.828.267A90.362,90.362,0,0,1,52.154,293.8c.394.145.79.3,1.186.449A102.048,102.048,0,0,1,70.126,302.608Z" transform="translate(-32.812 -288.922)" fill="#ed3833"/>
          <path id="Path_30" data-name="Path 30" d="M53.515,324.458l.005,0q11.391,1.067,22.656,3.125a.5.5,0,0,0,.347-.062q4.534,4.01,9.045,8.039c.022.151.049.3.068.46a.583.583,0,0,0,.895.4q3.5,3.122,7.01,6.24a1.82,1.82,0,0,0,1.135-.413q-4.059-3.61-8.117-7.233-1.579-11.142-4.059-22.1l0-.007c-.285-.358-.585-.713-.89-1.058-.194-.225-.4-.443-.6-.661q2.648,11.262,4.323,22.727C78.8,328.1,72.265,322.3,65.662,316.57c-3.34-2.892-6.73-5.715-10.13-8.53-.024-.067-.044-.132-.071-.2a.477.477,0,0,0-.181-.248,106.885,106.885,0,0,0-1.919-13.274c-.4-.152-.792-.3-1.186-.449a105.241,105.241,0,0,1,1.972,13.018q-2.554-2.123-5.108-4.264c-4.993-4.2-9.369-9.192-14.378-13.36l-1.776-.07c5.321,4.227,9.828,9.487,15.028,13.872.919.777,1.843,1.545,2.765,2.318A158.309,158.309,0,0,0,36.18,299l.518,1.221.06.147a130.687,130.687,0,0,1,17.1,7.939.454.454,0,0,0,.388.044.13.13,0,0,0,.037.032.046.046,0,0,1,0,.024.548.548,0,0,0,.631.5c3.36,2.788,6.715,5.573,10.014,8.431q5.149,4.467,10.253,8.989-11.352-2.018-22.83-3.038Z" transform="translate(-32.833 -289.001)" fill="#ffe6e8"/>
        </g>
        <g id="Group_13" data-name="Group 13" transform="translate(44.943)">
          <path id="Path_31" data-name="Path 31" d="M124.616,192.5a51.394,51.394,0,0,1,5.946,12.443c.085.285.17.571.244.859.12.445.231.9.327,1.344v.007a56.311,56.311,0,0,1,.888,14.623c-.243,5.714-.825,11.493-2.823,16.853a.356.356,0,0,1-.208.213,1.818,1.818,0,0,1-1.2-.134c-3.3-1.125-11.216-6.942-12.315-8.057A65.194,65.194,0,0,1,105.342,216.5a77.112,77.112,0,0,1-5.3-11.886l0,0c-.179-.52-.359-1.039-.526-1.56a77.9,77.9,0,0,1-3.718-19.666,74.707,74.707,0,0,1-.049-7.8l.011-.158.079-1.324a71.191,71.191,0,0,1,1.409-10.247c.011-.067.03-.133.041-.2.511.343,1.017.7,1.519,1.053a90.453,90.453,0,0,1,13.637,11.915c.288.305.576.618.862.93A102.088,102.088,0,0,1,124.616,192.5Z" transform="translate(-95.664 -163.649)" fill="#63aabc"/>
          <path id="Path_32" data-name="Path 32" d="M100.067,204.685l0,0q9.727,6.023,18.9,12.877a.508.508,0,0,0,.338.1q2.277,5.609,4.526,11.223c-.048.145-.092.294-.144.442a.584.584,0,0,0,.626.752q1.749,4.355,3.5,8.707a1.818,1.818,0,0,0,1.2.134q-2.029-5.039-4.052-10.088,3.542-10.681,6.2-21.6v-.007c-.1-.448-.207-.9-.327-1.344-.074-.287-.159-.573-.244-.859q-2.637,11.263-6.237,22.277c-3.261-8.108-6.534-16.215-9.9-24.28-1.7-4.076-3.486-8.112-5.279-12.145.009-.071.02-.138.024-.207a.482.482,0,0,0-.051-.3,106.891,106.891,0,0,0,4.185-12.743c-.287-.312-.574-.624-.862-.93a105.249,105.249,0,0,1-4.025,12.537c-.895-2.024-1.793-4.053-2.678-6.091-2.606-5.979-4.3-12.4-6.934-18.361l-1.56-.853c2.886,6.152,4.583,12.868,7.289,19.109.478,1.1.964,2.2,1.446,3.306a158.289,158.289,0,0,0-10.144-12.168l-.079,1.324-.011.158a130.663,130.663,0,0,1,11.783,14.716.455.455,0,0,0,.327.212.15.15,0,0,0,.019.045.038.038,0,0,1-.011.021.548.548,0,0,0,.342.731c1.77,3.991,3.535,7.979,5.219,12.005q2.625,6.292,5.184,12.611-9.27-6.857-19.1-12.875Z" transform="translate(-95.695 -163.729)" fill="#ffe6e8"/>
        </g>
        <g id="Group_14" data-name="Group 14" transform="translate(10.734 9.941)">
          <path id="Path_33" data-name="Path 33" d="M48.84,177.552a46.659,46.659,0,0,0,3.931,5.9,79.269,79.269,0,0,0,13.933,13.5q.813.645,1.633,1.266c.6.463,1.2.917,1.8,1.371,4.368,3.271,8.86,6.418,13.158,9.763q.737.561,1.443,1.14A86.788,86.788,0,0,1,94.114,219c.628.669,1.249,1.362,1.851,2.066l0,.008c.7.814,1.363,1.652,2.016,2.5l0,.008c5.05,6.7,8.526,14.629,8.39,22.943a41.706,41.706,0,0,1-2.61,13,33.995,33.995,0,0,1-5.847,11.065,27.672,27.672,0,0,1-4.872,4.552c-.453.32-.9.616-1.357.892-15.216,9.31-32.256-7-39.759-23.322-.595-1.286-1.128-2.58-1.592-3.856A37.957,37.957,0,0,1,48.2,240.4a63.254,63.254,0,0,1,.018-13.831l0-.008c.109-1.2.25-2.408.41-3.615a.008.008,0,0,1-.006-.01c.6-4.7,1.439-9.4,2.121-14.088a1.074,1.074,0,0,1,.026-.159l-.008,0c.109-.746.222-1.5.31-2.258,1.128-8.531,1.515-17.369-.983-25.462,0-.018-.017-.029-.021-.047A33.187,33.187,0,0,0,48.84,177.552Z" transform="translate(-47.824 -177.552)" fill="#ed3833"/>
          <path id="Path_34" data-name="Path 34" d="M91.836,277.375q-2.329-2.629-4.463-5.389A65.974,65.974,0,0,1,55.61,257.233c-1.161-.98-2.349-2.043-3.534-3.18L50.484,250.2a76.008,76.008,0,0,0,7.239,6.714A64.341,64.341,0,0,0,85.941,270.1a113.329,113.329,0,0,1-7.22-11.135.878.878,0,0,1-.325-.062,56.428,56.428,0,0,1-30.027-31l0-.008c.109-1.2.25-2.408.41-3.615a54.974,54.974,0,0,0,28.694,32.444,144.806,144.806,0,0,1-8.924-20.255c-1.871-5.231-3.652-10.488-5.4-15.761a.331.331,0,0,1-.114-.039,43.873,43.873,0,0,1-12.11-10.647l-.008,0,.31-2.258a42.115,42.115,0,0,0,11.142,10.593q-2.22-6.688-4.438-13.383c-2.493-7.433-4.6-15.319-7.688-22.672,0-.018-.017-.029-.021-.047l2.706,2.54C55,190.34,56.64,196.076,58.5,201.611q2.725,8.15,5.43,16.31c1.774-1.755,1.966-5.178,2.29-7.4a64.441,64.441,0,0,0,.693-8.956c.013-1.1-.009-2.187-.049-3.272l1.633,1.266a62.333,62.333,0,0,1-.152,6.243c-.289,3.94-.161,11.151-3.854,13.778,1.382,4.141,2.769,8.265,4.188,12.391q1.624,4.727,3.468,9.288a83.954,83.954,0,0,0,11.313-30.567l1.443,1.139A85.462,85.462,0,0,1,73.161,242.7a.749.749,0,0,1-.327.287,131.084,131.084,0,0,0,10.8,20.861c1.412-4.244,4.059-7.746,6.4-11.589a46.2,46.2,0,0,0,5.44-12.767,39.522,39.522,0,0,0,.636-17.081l0-.008.25.31,1.764,2.2,0,.008a40.37,40.37,0,0,1-.363,11.528,47.015,47.015,0,0,1-4.33,13.042c-2.766,5.487-7.074,10.083-8.646,16.118a101.649,101.649,0,0,0,8.4,10.87Z" transform="translate(-47.979 -178.893)" fill="#ffe6e8"/>
        </g>
      </g>
      <g id="Group_18" data-name="Group 18" transform="translate(52.508 96.445)">
        <g id="Group_17" data-name="Group 17" clip-path="url(#clip-path)">
          <path id="Path_35" data-name="Path 35" d="M370.4,244.591a141.5,141.5,0,0,1-6.264,22.4,25.064,25.064,0,0,1-2.7,5.656c-1.566,2.274-3.783,4.033-5.341,6.307a43.689,43.689,0,0,0-3.189,6.521c-5.892,12.728-18.57,21.094-25.449,33.307-2.453,4.362-4.162,9.189-7.308,13.078a8.612,8.612,0,0,1-3.461,2.81c-2.639,1.023-5.527-.143-8.087-1.452-.222-.107-.443-.222-.658-.336q-6.489-3.422-12.971-6.843-9.16-4.827-18.327-9.66a16.447,16.447,0,0,1-3.8-2.474c-.965-.922-1.695-2.059-2.6-3.025a21.266,21.266,0,0,0-6.107-4.04Q248.29,298.821,232.43,290.8c-5.914-2.989-14.873-6.893-17.791-13.357-1.38-3.075-.093-5.863,1.552-8.538,2.417-3.94,5.027-7.773,7.544-11.655q4.14-6.4,8.295-12.814,4.194-6.489,8.395-12.978c4.984-7.7,10-15.452,13.5-23.933,1.888-4.562,3.489-9.546,7.265-12.728,2.681,5.3,5.806,11,11.312,13.221,2.109.844,4.419,1.1,6.486,2.038,2.331,1.058,4.2,2.9,6.114,4.6,10.261,9.117,23.061,14.9,36.032,19.4,12.177,4.233,25.006,7.472,37.827,7.172q3.207-.075,6.4-.458c1.888-.229,4.355-.229,5.048,1.545A4.124,4.124,0,0,1,370.4,244.591Z" transform="translate(-104.152 -124.469)" fill="#d8e7ec"/>
          <path id="Path_36" data-name="Path 36" d="M251.787,284.378a12.463,12.463,0,0,1-3.4.594c-.925.077,1.771,2.45,2.119,3.31a6.721,6.721,0,0,0,.6,1.335,1.443,1.443,0,0,0,1.219.694,2.055,2.055,0,0,0,1.094-.58l2.889-2.4c1.487-1.237,2.619-3.643.486-5.057C255.16,281.184,253.275,283.686,251.787,284.378Z" transform="translate(-113.88 -149.318)" fill="#e54c4c"/>
          <path id="Path_37" data-name="Path 37" d="M229.194,286.728c-3.778.592-7.422,1.876-11.2,2.472-4.937.779-10.019.372-14.924,1.331-1.191.232-2.573.746-2.835,1.931-.225,1.015.508,1.969,1.192,2.752l4.039,4.62a6.428,6.428,0,0,1,1.512,2.35c.147.518.231,1.163.727,1.374a1.393,1.393,0,0,0,.646.059c8.686-.6,16.843-4.2,24.793-7.751l5.119-2.285a3.75,3.75,0,0,0,2.279-1.9c.561-1.69-1.579-4.328-3.083-5.007C235.242,285.674,231.5,286.367,229.194,286.728Z" transform="translate(-100.202 -150.502)" fill="#fe6361"/>
          <path id="Path_38" data-name="Path 38" d="M207.839,368.862a57.561,57.561,0,0,1-10.479,1.128,76.646,76.646,0,0,1-17.555-.808c-4.887-.939-9.781-2.719-14.705-2-.986-14.062,3.344-27.892,7.622-41.322a2.432,2.432,0,0,1,.752-1.31,2.3,2.3,0,0,1,1.507-.268c3.655.237,7.17,1.429,10.726,2.307a63.628,63.628,0,0,0,19.884,1.68,11.756,11.756,0,0,1,4.457.189,9.965,9.965,0,0,1,3.747,2.613,65.555,65.555,0,0,1,9.176,11.263c2.257,3.5,5.685,8.416,6.3,12.614.592,4.072-5.226,6.393-8.214,8.206A44.972,44.972,0,0,1,207.839,368.862Z" transform="translate(-90.162 -161.361)" fill="#1e1240"/>
          <path id="Path_39" data-name="Path 39" d="M327.244,267.067c.093,4.433-2.617,8.373-5.22,11.963q-2.649,3.668-5.306,7.337c-.951,1.316-2.059,2.739-3.661,3.018-1.28-3.039-5.42-3.926-8.5-2.774s-5.363,3.754-7.572,6.2c-5.935,6.593-12.27,12.807-18.6,19.013-.107.107-.215.215-.322.315-3.79,3.718-7.594,7.429-11.677,10.833a91.168,91.168,0,0,1-17.719,11.677c-2.388,1.194-5.077,2.288-7.665,1.609a11.581,11.581,0,0,1-4.512-2.86,103.271,103.271,0,0,1-12.013-12.535v-.007c-7.122-8.91-12.313-19.128-13.036-30.376a203.636,203.636,0,0,0,31.985-16.961,3.808,3.808,0,0,0,2-2.31.407.407,0,0,0,.007-.093,7.1,7.1,0,0,0-.436-2.245c-.615-2.8,1.509-5.506,3.94-7.022s5.284-2.31,7.594-4.011c4.569-3.368,6.092-9.482,9.718-13.851a20.634,20.634,0,0,1,6.25-4.962,31.313,31.313,0,0,1,3.225-1.487c3.318-1.309,6.836-1.773,10.182-2.917a13.3,13.3,0,0,1,8.788-.2c7.808,1.966,14.995,5.749,22.074,9.482a15.026,15.026,0,0,1,3.933,2.631c1.73,1.795,2.46,4.3,3.132,6.693q1.223,4.4,2.453,8.788A20.514,20.514,0,0,1,327.244,267.067Z" transform="translate(-103.407 -135.575)" fill="url(#linear-gradient)"/>
          <path id="Path_40" data-name="Path 40" d="M327.052,269.294a4.079,4.079,0,0,0-4.015.381,18.988,18.988,0,0,0-3.131,2.828,6.95,6.95,0,0,1-3.57,2.139c-1.359.224-2.734-.245-4.111-.26a9.532,9.532,0,0,0-5.924,2.471c-1.693,1.379-3.141,3.04-4.847,4.4-1.478,1.181-3.136,2.128-4.575,3.357a7.926,7.926,0,0,0-2.948,4.7,3.235,3.235,0,0,0,3.583,3.924,9.186,9.186,0,0,0,3.341-.935,44.9,44.9,0,0,0,12.137-7.877,25.5,25.5,0,0,0,4.2-4.76c1.144-1.714,3-2.648,4.528-3.989A26.663,26.663,0,0,0,327.052,269.294Z" transform="translate(-126.899 -145.59)" fill="#2d2796"/>
          <path id="Path_41" data-name="Path 41" d="M285.818,241.115c-1.266,3.725-3.518,7.058-5.742,10.325-1.151,1.7-2.31,3.4-3.461,5.1-1.008,1.48-2.016,2.96-3.132,4.362a52.265,52.265,0,0,1-9.7,9.053,22.735,22.735,0,0,1-5.027,3.253,7.1,7.1,0,0,0-.436-2.245c-.615-2.8,1.509-5.506,3.94-7.022s5.284-2.31,7.594-4.011c4.569-3.368,6.092-9.482,9.718-13.851A20.634,20.634,0,0,1,285.818,241.115Z" transform="translate(-116.734 -137.668)" fill="#2d2796"/>
          <path id="Path_42" data-name="Path 42" d="M305.808,332.105v48.073a4.194,4.194,0,1,1-8.388,0V332.105a4.194,4.194,0,1,1,8.388,0Z" transform="translate(-127.906 -162.401)" fill="#2e215e"/>
          <path id="Path_43" data-name="Path 43" d="M305.808,345.926V361.7c-.365-.107-.729-.229-1.087-.35a46.812,46.812,0,0,1-7.3-3.289V344.775A57.74,57.74,0,0,1,305.808,345.926Z" transform="translate(-127.906 -167.205)" fill="#03010c"/>
          <g id="Group_16" data-name="Group 16" transform="translate(129.218 150.8)">
            <path id="Path_44" data-name="Path 44" d="M338.861,319.134a1.742,1.742,0,0,1-.744.815c-6.3,4.476-13.522,7.53-19.864,11.949-5.241,3.647-10.161,8.352-16.439,9.5-3.854.7-7.8-.036-11.641-.772q-10.973-2.091-21.945-4.19c-8.888-1.7-17.834-3.418-26.228-6.786a1.584,1.584,0,0,1-.822-.572c-.415-.715.436-1.487,1.158-1.873,10.561-5.67,21.8-9.832,31.477-17.047a14.026,14.026,0,0,1,4.069-2.417,12.328,12.328,0,0,1,3.475-.393,104.819,104.819,0,0,1,28.7,3.7l.622.172c6.264,1.759,12.449,4.054,18.792,5.334a48.143,48.143,0,0,0,7.086.915C337.652,317.525,339.2,318.083,338.861,319.134Z" transform="translate(-241.067 -307.337)" fill="#afccd2"/>
            <path id="Path_45" data-name="Path 45" d="M339.477,323.086c-.205-.014-.41-.018-.615-.031a.851.851,0,0,1,0,.56,1.766,1.766,0,0,1-.74.817c-6.305,4.474-13.525,7.526-19.87,11.944-5.241,3.651-10.155,8.352-16.439,9.495-3.848.7-7.8-.036-11.638-.769l-21.949-4.194c-8.883-1.7-17.832-3.414-26.224-6.786a2.246,2.246,0,0,1-.625-.343c-1.061,1.652.977,4.062,2.33,4.941,1.926,1.254,4.292,1.573,6.566,1.893a247.014,247.014,0,0,1,28.67,5.792c8.449,2.235,17.389,4.925,25.744,2.358a33.085,33.085,0,0,0,8-3.944c6.885-4.4,13.037-10.01,20.412-13.535a18.071,18.071,0,0,0,5-2.928C339.5,327.005,340.321,324.833,339.477,323.086Z" transform="translate(-241.072 -311.816)" fill="#659296"/>
          </g>
          <path id="Path_46" data-name="Path 46" d="M341.1,318.1a6.005,6.005,0,0,1-1.037,1.173,48.311,48.311,0,0,1-6.979,5.013q-4.483,2.842-8.967,5.67a63.01,63.01,0,0,1-11.605,6.235,21.056,21.056,0,0,1-12.943.922c-3.125-.9-5.885-2.753-8.867-4.047-1.995-.872-8.037-.629-8.717-2.853-.772-2.531,4.176-5.12,5.878-6.114q4.9-2.864,9.954-5.449a48.581,48.581,0,0,1,7.322-3.211,55.061,55.061,0,0,1,9.954-1.881c2.381-.3,4.8-.6,7.215-.794C328.574,314.524,334.759,316.819,341.1,318.1Z" transform="translate(-123.486 -158.084)" fill="#9abcc1"/>
          <path id="Path_47" data-name="Path 47" d="M265.007,318.624c-.615.4-1.279.912-1.348,1.643-.114,1.2,1.355,1.847,2.533,2.117l28.7,6.574a36.29,36.29,0,0,0,4.543.839A22.406,22.406,0,0,0,309.6,328.23a58.078,58.078,0,0,0,10.259-5.637,68.36,68.36,0,0,0,8.332-5.945,34.607,34.607,0,0,1,5.343-4.38c1.32-.754,3.017-1.572,3.035-3.093a63.012,63.012,0,0,0-13.125-4.222l-6.057-1.469-7.133-1.731a98.443,98.443,0,0,0-13.884-2.672,15.7,15.7,0,0,0-7.772.789c-4.658,2.037-6.69,7.3-10.465,10.458C274.142,313.661,269.336,315.8,265.007,318.624Z" transform="translate(-118.285 -154.144)" fill="#fff"/>
          <path id="Path_48" data-name="Path 48" d="M337.875,310.485a1.914,1.914,0,0,1-.629,1.287c-.751.636-1.873.465-2.846.3a30.234,30.234,0,0,0-6.278-.408,5.148,5.148,0,0,0-2.481.565,12.967,12.967,0,0,0-2.038,2.109,8.019,8.019,0,0,1-4.34,1.909c-1.895.379-3.9.6-5.527,1.595-2.188,1.337-3.318,3.826-4.712,5.971s-3.618,4.226-6.157,3.876c-2.131-.3-4.1-1.752-6.185-2.531.922-.343,1.838-.694,2.76-1.037a25.175,25.175,0,0,0,6.736-3.325c1.838-1.423,3.246-3.318,4.97-4.877a17.922,17.922,0,0,1,5.492-3.411c.043-.014.05-.057.043-.122a1.376,1.376,0,0,0,.644-.043,11.173,11.173,0,0,0,3.332-2.045c1.409-1.208,3.4-1.394,5.256-1.5.043,0,.086-.007.129-.007.336-.021.665-.036,1-.05.9-.057,1.8-.1,2.7-.143,1.888-.086,3.79-.15,5.685-.193,0-.294,2.5.332,3,.651C338.611,309.027,338.144,309.807,337.875,310.485Z" transform="translate(-127.695 -156.819)" fill="#f4f2f2"/>
          <path id="Path_49" data-name="Path 49" d="M336.886,300.915q-2.864.064-5.72.193c-1.237.057-2.467.122-3.7.193-.043,0-.086.007-.129.007-1.852.107-3.847.293-5.256,1.5a11.17,11.17,0,0,1-3.332,2.045c-1,.279-1.158-.329-1.852-1.1a18.242,18.242,0,0,1-1.688-2.624c-2.481-3.911-7.429-5.721-12.063-5.6-.572.014-1.309-.057-1.452-.615a1.17,1.17,0,0,1,.193-.829c1.931-3.6,5.678-5.8,9.3-7.687,2.345-1.216,4.712-2.4,7.115-3.49.229-.107.458-.215.686-.315a6.781,6.781,0,0,1,.837-.315c1.816-.565,3.153-.079,5.034.98,3.818,2.152,6.578,5.806,9.067,9.317C335.678,295.058,337.472,297.933,336.886,300.915Z" transform="translate(-129.116 -149.329)" fill="#e54c4c"/>
          <path id="Path_50" data-name="Path 50" d="M273.941,312.947a9.473,9.473,0,0,1-1.551,2.744,7.861,7.861,0,0,1-2.194,1.45l-3.1,1.58c-2.794,1.426-5.833,3.123-6.85,6.091a2.26,2.26,0,0,1-2.267,2.149,6.663,6.663,0,0,0-4.586,4.119,9.7,9.7,0,0,0-.244,5.144l6.435,2.119a8.955,8.955,0,0,0,3.988.666c.8-.112,1.552-.44,2.35-.56,1.075-.163,2.195.055,3.249-.212,2.849-.722,3.695-4.295,5.637-6.5a27.16,27.16,0,0,0,2.7-2.812c.71-1.091.823-2.767-.237-3.524l9.7-3.644a25.349,25.349,0,0,0,6.741-3.331c1.837-1.419,3.246-3.314,4.964-4.875a17.873,17.873,0,0,1,5.5-3.407c.562-.22-3.969-5.677-4.432-6.081a17.993,17.993,0,0,0-7.061-3.755c-4.755-1.312-9.977,2.112-13.364,5.244A23.148,23.148,0,0,0,273.941,312.947Z" transform="translate(-115.228 -154.452)" fill="#fe6361"/>
          <path id="Path_51" data-name="Path 51" d="M352.267,233.563c.007,3,.164,6.014.472,9a46.058,46.058,0,0,1-9.489,2.51c-1.68.272-3.382.472-5.084.622-1.223.107-2.953-.15-3.225-1.652-.186-1.058.8-2.088,1.294-2.932,1.637-2.76,2.86-5.635,5.041-8.044a18.89,18.89,0,0,1,7.086-4.9,13.5,13.5,0,0,1,1.494-.486,6.4,6.4,0,0,1,3.053-.114A21.056,21.056,0,0,0,352.267,233.563Z" transform="translate(-138.591 -133.77)" fill="#db4646"/>
          <path id="Path_52" data-name="Path 52" d="M348.227,231.317a26.852,26.852,0,0,0-4.934,13.293c-.014.186-.029.372-.043.565-1.68.272-3.382.472-5.084.622-1.223.107-2.953-.15-3.225-1.652-.186-1.058.8-2.088,1.294-2.932,1.637-2.76,2.86-5.635,5.041-8.044a18.891,18.891,0,0,1,7.086-4.9,13.512,13.512,0,0,1,1.494-.486C350.458,228.679,349.321,229.794,348.227,231.317Z" transform="translate(-138.591 -133.869)" fill="#c13636"/>
          <path id="Path_53" data-name="Path 53" d="M352.635,207.554a15.662,15.662,0,0,1-3.976,9.124,3.131,3.131,0,0,1-1.652,1.123c-.694.136-1.437-.157-2.1.072a2.845,2.845,0,0,0-1.1.9,57.151,57.151,0,0,0-5.241,7.236,15.4,15.4,0,0,1-2.724,3.7c-1.881,1.652-4.5,2.124-6.965,2.539a14.842,14.842,0,0,1-3.118.286,5.784,5.784,0,0,1-1.709-.322,9.641,9.641,0,0,1-3.847-3.261,16.488,16.488,0,0,1-2.453-3.582,16.039,16.039,0,0,1-.98-3.375c-1.094-5.148-2.167-10.354-2.138-15.617a37.88,37.88,0,0,1,1.087-8.824c.408-1.688,2.267-4.34.386-5.442a95.1,95.1,0,0,0,10.433-1.065c1.337-.2,2.674-.436,4.033-.686,4.82-.894,9.818-1.652,14.659-.493a4.18,4.18,0,0,1,1.916.858c.922.844,1.023,2.231,1.058,3.475a49.861,49.861,0,0,1-.107,6.857c-.193,1.78-.551,3.69.293,5.27a5.447,5.447,0,0,1,2.188-.908,1.889,1.889,0,0,1,1.974,1.023A2.628,2.628,0,0,1,352.635,207.554Z" transform="translate(-132.81 -122.898)" fill="#fe6361"/>
          <path id="Path_54" data-name="Path 54" d="M355.472,207.554a15.662,15.662,0,0,1-3.976,9.124,3.131,3.131,0,0,1-1.652,1.123c-.694.136-1.437-.157-2.1.072a2.844,2.844,0,0,0-1.1.9,57.151,57.151,0,0,0-5.241,7.236,15.4,15.4,0,0,1-2.724,3.7c-1.881,1.652-4.5,2.124-6.965,2.539a14.841,14.841,0,0,1-3.118.286,3.021,3.021,0,0,1,1.688-2.753,29.27,29.27,0,0,1,3.532-1.294,7.916,7.916,0,0,0,4.727-7.873c-.2-2.074-1.2-4.3-.179-6.107.794-1.416,2.581-2.024,3.447-3.4.937-1.494.543-3.425.114-5.141a8.761,8.761,0,0,0-2.038-4.419c-2.009-1.9-5.22-1.494-7.894-.772-1.78.486-5.3,1.959-6.807.25-1.437-1.623.057-4.112.972-5.549a45.125,45.125,0,0,1,3.218-4.433c1.337-.2,2.674-.436,4.033-.686,4.819-.894,9.818-1.652,14.659-.493a4.18,4.18,0,0,1,1.916.858c.922.844,1.023,2.231,1.058,3.475a49.866,49.866,0,0,1-.107,6.857c-.193,1.78-.551,3.69.293,5.27a5.446,5.446,0,0,1,2.188-.908,1.889,1.889,0,0,1,1.974,1.023A2.629,2.629,0,0,1,355.472,207.554Z" transform="translate(-135.647 -122.898)" fill="#ea5757"/>
          <path id="Path_55" data-name="Path 55" d="M339.407,175.079c-2.669-1.075-5.622-1.131-8.5-1.134a32.7,32.7,0,0,0-4.63.225,16.345,16.345,0,0,0-8.758,4.086,14.59,14.59,0,0,0-4.553,8.481,10.051,10.051,0,0,1-.62,2.909c-.346.726-.924,1.326-1.233,2.068a4.1,4.1,0,0,0,1.518,4.616,8.047,8.047,0,0,0,4.948,1.37,22.807,22.807,0,0,0,9.941-2.682c3.1-1.537,5.987-3.477,8.972-5.232a4.315,4.315,0,0,1,2.674-.837,3.414,3.414,0,0,1,2.33,1.933c1.288,2.389,1.127,5.258,1.118,7.972a5.13,5.13,0,0,0,.654,3.035,2.788,2.788,0,0,0,4.4-.108,5.793,5.793,0,0,1,.543-.857,5.122,5.122,0,0,1,.716-.549,5.613,5.613,0,0,0,1.727-3.665A40.07,40.07,0,0,0,351,185.3c-.357-3.165-1.686-4.6-4.461-5.947C344.033,178.139,342.015,176.13,339.407,175.079Z" transform="translate(-131.74 -118.528)" fill="url(#linear-gradient-2)"/>
          <path id="Path_56" data-name="Path 56" d="M99.74,357.338c-3.53,6.575-6.267,13.992-5.215,21.38q33.278,0,66.478,2.8a44.633,44.633,0,0,0-.1-24.86,2.989,2.989,0,0,0-1.018-1.745,3.072,3.072,0,0,0-1.507-.367L125.357,352.3l-16.512-1.121c-1.284-.087-6.374-1.152-7.244-.248-.3.315-.227,2.572-.357,3.073A15.582,15.582,0,0,1,99.74,357.338Z" transform="translate(-70.028 -168.857)" fill="url(#linear-gradient-3)"/>
          <path id="Path_57" data-name="Path 57" d="M204.626,259.449a62.4,62.4,0,0,1,.887,17.042,15.973,15.973,0,0,0,.011,4.785c.63,2.863,2.967,5.049,5.474,6.569s5.288,2.572,7.689,4.252a18.354,18.354,0,0,0-5.733,7.992,54.823,54.823,0,0,0-2.54,9.615,57.272,57.272,0,0,1-18.7-8.332q1.151-12.174,2.3-24.347l1.073-11.334q.575-6.082,1.151-12.164.3-3.139.594-6.278c.122-1.284-.181-4.292.65-5.259,2.32-2.7,3.747,4.972,4.136,6.192A97.868,97.868,0,0,1,204.626,259.449Z" transform="translate(-97.787 -137.755)" fill="#becfd3"/>
          <path id="Path_58" data-name="Path 58" d="M172.424,257.282a48.98,48.98,0,0,1-.837,7.058c-2.5,14.866-5.005,29.789-9.582,44.155a3.339,3.339,0,0,1-3.79,2.875,189.408,189.408,0,0,1-36.068-1.051,8.894,8.894,0,0,0-3.861.064A8.153,8.153,0,0,0,114.5,313.7a55.809,55.809,0,0,0-6.85,12.714c-6.822-2.1-11.477-8.223-15.653-14.008a7.362,7.362,0,0,1-1.2-2.124,7.283,7.283,0,0,1-.072-2.839,244.749,244.749,0,0,1,11.048-50.569,14.975,14.975,0,0,1,1.9-4.183,18.754,18.754,0,0,1,4.247-3.683,46.085,46.085,0,0,0,4.29-3.547,46.891,46.891,0,0,0,5.384-5.914c.851-1.123,1.466-2.56,2.4-3.59,1.058-1.173,2.7-1.53,4.147-2a106.841,106.841,0,0,1,12.471-3.161c.057-.014.114-.021.172-.036,8.409-1.623,16.954-2.438,25.478-3.254a7.705,7.705,0,0,1,3.5.215c2.467.958,3.211,4.019,3.611,6.629q1.115,7.165,2.217,14.315A49.177,49.177,0,0,1,172.424,257.282Z" transform="translate(-68.982 -133.763)" fill="url(#linear-gradient-4)"/>
          <path id="Path_59" data-name="Path 59" d="M196.331,289.5c0-.006,0-.011-.006-.016.021-.027.042-.051.063-.077a.634.634,0,0,0-.193-.931c2.054-2.156,4.11-4.681,4.146-7.17a.5.5,0,0,0-.739-.425c-.126.069-.247.146-.368.223.022-.133.049-.265.066-.4a.733.733,0,0,0-1.24-.513c-2.482,3.167-4.155,6.807-6.812,9.915-2.577,3.013-5.3,7.33-8.962,8.98-.017.008-.005.036.014.031a19.188,19.188,0,0,0,2.891-1.284,12.135,12.135,0,0,0,4.023-2.285c.006.005.014.011.016,0s.005-.014.006-.02a28.6,28.6,0,0,0,2.591-2.479,5.455,5.455,0,0,1,2.065-.505c1.384,0,2.744.93,4.076,1.235a.9.9,0,0,0,.691-1.641C197.637,291.407,196.556,290.871,196.331,289.5Z" transform="translate(-95.097 -148.742)" fill="#becfd3"/>
          <path id="Path_60" data-name="Path 60" d="M133.465,319.668c-.272-3.078-3.327-4.263-5.013-6.447-2.02-2.619-1.753-6.277-1.388-9.564l1.335-12.049c.364-3.28.684-6.767-.265-9.856a39.2,39.2,0,0,0-.422-4.394c-.051-.342-.117-.68-.188-1.016a9.963,9.963,0,0,0-1.865-4.721,11.96,11.96,0,0,0-3.271-3.495,7.907,7.907,0,0,0-3.138-1.572.036.036,0,0,0-.027.066c3.153,2.005,4.376,6.443,5.329,9.951a12.37,12.37,0,0,1-.036,5.711,14.6,14.6,0,0,0-.673,1.639c-2.44,7.07-3.1,14.61-3.739,22.061a21.58,21.58,0,0,0-.059,4.725c.6,4.436,5.006,11.5,9.781,12.448C132.217,323.629,133.68,322.12,133.465,319.668Z" transform="translate(-77.125 -144.916)" fill="#becfd3"/>
          <path id="Path_61" data-name="Path 61" d="M255.34,306.963a20.869,20.869,0,0,0,1.174,5c.482,1.489,1.214,3.211,2.747,3.52a4.463,4.463,0,0,0,1.638-.082l3.655-.644c2.864-.5,5.878-1.078,8.084-2.974,1.823-1.568,2.853-3.841,4.256-5.794,2.641-3.676,6.572-6.177,10.4-8.586a8.33,8.33,0,0,1,4.007-1.624c.941-.029,2.167.115,2.547-.747.092-.207.117-.456.283-.609a1.957,1.957,0,0,1,.558-.242,1.076,1.076,0,0,0,.435-1.373,2.161,2.161,0,0,0-1.15-1.048,1.708,1.708,0,0,1-.766-.5c-.119-.177-.153-.4-.265-.578a1.585,1.585,0,0,0-1.308-.527l-6.772-.474a7.4,7.4,0,0,0-2.763.155c-2.533.806-3.617,4.064-6.125,4.947-.8.282-1.689.29-2.479.61-1.58.639-2.405,2.327-3.359,3.74a15.031,15.031,0,0,1-11.661,6.426C257.18,305.608,255.207,304.931,255.34,306.963Z" transform="translate(-115.914 -151.489)" fill="#4cb4d5"/>
          <path id="Path_62" data-name="Path 62" d="M298.769,298.023a1.074,1.074,0,0,0-1.338-.715c-4.769,1.447-9.661,2.718-14.543,3.778a1.073,1.073,0,0,0,.226,2.121,1.054,1.054,0,0,0,.23-.025c4.937-1.071,9.887-2.357,14.71-3.821A1.073,1.073,0,0,0,298.769,298.023Z" transform="translate(-123.525 -153.666)" fill="#ae273e"/>
          <path id="Path_63" data-name="Path 63" d="M146.993,344.631a26.782,26.782,0,0,1-1.981,9.038,3.155,3.155,0,0,1-.937,1.566,3.21,3.21,0,0,1-1.609.458,114.241,114.241,0,0,1-13.071.744,46.02,46.02,0,0,1-5.606-.429c-2.367-.343-4.748-.9-7.129-.615q2.4-4.011,4.812-8.016c1.1-1.838,2.188-3.547,4.2-4.047a5.383,5.383,0,0,1,.858-.129C133.364,342.758,140.15,344.917,146.993,344.631Z" transform="translate(-76.4 -166.739)" fill="#fe6361"/>
          <path id="Path_64" data-name="Path 64" d="M153.813,249.435a5.21,5.21,0,0,1-3.053-1.273,24.151,24.151,0,0,0-24.526-1.087,8.217,8.217,0,0,1-2.9,1.208,2.276,2.276,0,0,1-2.51-1.43.157.157,0,0,1-.007-.057,46.889,46.889,0,0,0,5.384-5.914c.851-1.123,1.466-2.56,2.4-3.59,1.058-1.173,2.7-1.53,4.147-2a106.842,106.842,0,0,1,12.471-3.161c.057-.014.114-.021.172-.036a26.651,26.651,0,0,1,3.8,4.727,51.313,51.313,0,0,1,3.661,6.571C153.734,245.288,154.514,247.462,153.813,249.435Z" transform="translate(-77.585 -135.097)" fill="url(#linear-gradient-5)"/>
          <path id="Path_65" data-name="Path 65" d="M178.583,222.16a3.233,3.233,0,0,1-1.6,2.3c-2.088,1.537-4.727,2.939-5.241,5.477a8.639,8.639,0,0,0-.093,1.923,100.847,100.847,0,0,1-.443,12.385q-.322,3.293-.858,6.557c-.029.193-.079.415-.257.493-.229.107-.472-.086-.644-.265-2.016-2.145-3.411-4.791-5.177-7.143-5.163-6.872-13.207-10.862-19.857-16.31a2.874,2.874,0,0,1-.844-.944,2.583,2.583,0,0,1,.529-2.4c1.866-2.782,4.848-4.562,7.565-6.514a54.12,54.12,0,0,0,9.61-8.874c1.065-1.259,2.2-3.625,4.1-2.91,1.366.515,2.846,2.181,4.119,3.554.458.486.88.944,1.266,1.294a25.323,25.323,0,0,1,7.337,9.8A3.47,3.47,0,0,1,178.583,222.16Z" transform="translate(-84.029 -127.608)" fill="#db4646"/>
          <path id="Path_66" data-name="Path 66" d="M187.318,223.629a3.233,3.233,0,0,1-1.6,2.3c-2.088,1.537-4.727,2.939-5.241,5.477a8.64,8.64,0,0,0-.093,1.924,100.843,100.843,0,0,1-.443,12.385,6.1,6.1,0,0,1-1.437-2.388,15.82,15.82,0,0,1-.579-4.5c-.086-2.56-.164-5.127-.25-7.694a9.937,9.937,0,0,0-.522-3.468c-.844-2.117-3.1-3.711-3.06-5.985.021-1.573,1.166-2.882,1.8-4.326.7-1.587.322-2.882.436-4.483.079-1.13.915-1.652,1.895-1.909.458.486.88.944,1.266,1.294a25.323,25.323,0,0,1,7.336,9.8A3.47,3.47,0,0,1,187.318,223.629Z" transform="translate(-92.764 -129.077)" fill="#c13636"/>
          <path id="Path_67" data-name="Path 67" d="M207.862,207.364a2.679,2.679,0,0,1-2.717,1.08,13.351,13.351,0,0,0-3.089-.3c.172,1.309.286,2.81-.622,3.761a3.271,3.271,0,0,0-.737.808,7.467,7.467,0,0,0-.215.98c-.358,1.13-2.031,1.294-2.574,2.353-.179.358-.207.765-.365,1.137a2.056,2.056,0,0,1-1.466,1.158,5.964,5.964,0,0,1-2.589-.007,57.613,57.613,0,0,1-9.911-3.082c-.672-.257-1.337-.529-2-.794a25.764,25.764,0,0,1-4.476-1.966,4.128,4.128,0,0,1-1.659-1.873,6.419,6.419,0,0,1-.079-3.254,2.084,2.084,0,0,0-.1-1.323c-.393-.708-1.094-.279-1.673-.164a2.16,2.16,0,0,1-1.909-.551c-1.738-1.645-1.423-4.455-1.108-6.557a5.776,5.776,0,0,1,.593-2.067c.958-1.688,3.161-1.645,4.748-1.044.594.229,1.18.45,1.766.7.429.186.858.386,1.287.586.565-1.087,1.194-2.174,1.881-3.232a50.89,50.89,0,0,1,5.055-6.593,17.452,17.452,0,0,1,3.625-3.225c2.338-1.459,5.127-1.966,7.837-2.445a16.63,16.63,0,0,1,5.342-.365,5.642,5.642,0,0,1,4.319,2.846,7.2,7.2,0,0,1,.558,2.639c.3,4.548-2.61,8.395-2.381,12.95a7.841,7.841,0,0,0,1.294,3.926C207.312,204.661,208.52,206.063,207.862,207.364Z" transform="translate(-91.692 -120.534)" fill="#fe6361"/>
          <path id="Path_68" data-name="Path 68" d="M196.078,223.412a5.965,5.965,0,0,1-2.589-.007,57.608,57.608,0,0,1-9.911-3.082c-.672-.257-1.337-.529-2-.794a25.764,25.764,0,0,1-4.476-1.966,4.128,4.128,0,0,1-1.659-1.873,6.419,6.419,0,0,1-.079-3.254,2.084,2.084,0,0,0-.1-1.323c-.393-.708-1.094-.279-1.673-.164a2.161,2.161,0,0,1-1.909-.551c-1.738-1.645-1.423-4.455-1.108-6.557a5.776,5.776,0,0,1,.593-2.066c.958-1.688,3.161-1.645,4.748-1.044.594.229,1.18.451,1.766.7.429.186.858.386,1.287.586.565-1.087,1.194-2.174,1.881-3.232,1.595.136,4.033-.164,4.634,1.173.844,1.873-1.087,5.206-1.738,6.915-.865,2.267-1.387,4.991,0,6.979a8.565,8.565,0,0,0,3.69,2.56c1.637.751,3.275,1.509,4.912,2.26,1.688.772,3.611,1.852,3.818,3.7A2.692,2.692,0,0,1,196.078,223.412Z" transform="translate(-91.692 -125.606)" fill="#ea5757"/>
          <path id="Path_69" data-name="Path 69" d="M191.884,190.205a17.873,17.873,0,0,0,6.059-3.74c2.844-2.97,3.571-7.316,5.314-11.041a6.786,6.786,0,0,0,.8-2.267,5.041,5.041,0,0,0-1.168-3.189c-2.083-2.945-5.018-5.158-7.9-7.321-3.5-2.623-7.224-5.339-11.569-5.821-5.966-.662-11.458,3-16.34,6.491l-5.832,4.171c-1.53,1.095-3.185,2.378-3.5,4.233-.34,1.991,1,3.913.987,5.933a10.87,10.87,0,0,1-.82,3.35,15.117,15.117,0,0,0-.649,8.621,8.193,8.193,0,0,0,5.768,6.022c1.444.317,3.248-.059,3.829-1.418s-.214-3.334.988-4.21c1.217-.887,4.654-.849,5.883-.011,1.529,1.043,1.881,2.306,3.956,2.786C182.4,193.889,187.594,192.04,191.884,190.205Z" transform="translate(-87.862 -113.628)" fill="url(#linear-gradient-6)"/>
          <path id="Path_70" data-name="Path 70" d="M155.475,173.147a3.233,3.233,0,0,0-1.444,2.015,9.59,9.59,0,0,0-.23,2.528,3.342,3.342,0,0,0,.29,1.68c.542.952,1.823,1.13,2.917,1.128a3.014,3.014,0,0,0,1.071-.139c1.039-.394,1.371-1.68,1.486-2.785.12-1.153.679-3.75-.382-4.546C158.443,172.474,156.179,172.758,155.475,173.147Z" transform="translate(-86.983 -118.178)" fill="#fe6361"/>
          <path id="Path_71" data-name="Path 71" d="M135.524,171.025a11.2,11.2,0,0,0-3.432,1.333,22.014,22.014,0,0,0-10.25,12.8,52.55,52.55,0,0,0-1.475,9.721c-.733,7.243-2.326,14.9-7.46,20.061a11.749,11.749,0,0,0-2.108,2.4,6.749,6.749,0,0,0-.468,4.516,6.848,6.848,0,0,0,1.377,3.236,5.761,5.761,0,0,0,5.89,1.489,10.7,10.7,0,0,0,5.126-3.7,10.089,10.089,0,0,1,1.911-2.022,2.541,2.541,0,0,1,2.629-.3c.809.463,1.128,1.449,1.68,2.2a5.153,5.153,0,0,0,3.778,1.894,12.914,12.914,0,0,0,4.3-.577,12.628,12.628,0,0,0,4.065-1.668c2.471-1.727,3.6-4.889,3.657-7.9a31.751,31.751,0,0,0-1.614-8.862,24.339,24.339,0,0,1-1.221-8.9c.409-3.881,2.567-7.712,1.566-11.484-.413-1.555-1.359-3.081-1.028-4.656.488-2.315,1.908-5.267.435-7.6C141.574,170.943,137.63,170.646,135.524,171.025Z" transform="translate(-74.547 -117.656)" fill="url(#linear-gradient-7)"/>
          <path id="Path_72" data-name="Path 72" d="M199.74,363.221a12.844,12.844,0,0,0-4.676.972,1.652,1.652,0,0,0-.164.072c-2.009.822-3.883,2.045-6.006,2.5-3.811.808-7.773-.965-11.634-.429a19.407,19.407,0,0,0-3.919,1.116c.143-2.946,3.818-4.7,4.176-7.63a5.1,5.1,0,0,0-2.231-4.448,18.236,18.236,0,0,0-4.7-2.21,11.165,11.165,0,0,1-4.462-2.6c-.622-.679-1.087-1.494-1.652-2.224a10.3,10.3,0,0,0-2.953-2.61c.029-1.423,1.709-2.1,3.068-2.531,2.639-.829,4.97-2.46,7.608-3.225,2.853-.822,5.835-.879,8.681-1.852,1.015-.343,2.317-.686,3.032.114a1.913,1.913,0,0,1,.422,1.094c.036.286.036.586.043.872a18.391,18.391,0,0,0,3.547,9.761c.593.865,1.244,1.709,1.888,2.546.787,1.008,1.566,2.024,2.353,3.032C194.37,358.4,196.651,361.326,199.74,363.221Z" transform="translate(-89.183 -165.2)" fill="#ae273e"/>
          <path id="Path_73" data-name="Path 73" d="M206.455,363.852a12.844,12.844,0,0,0-4.676.973,1.641,1.641,0,0,0-.164.071,13.4,13.4,0,0,1-1.459-.851c-2-1.3-3.954-3.125-4.219-5.5a3.232,3.232,0,0,0-.429-1.795,3.9,3.9,0,0,0-1.509-.815,3.459,3.459,0,0,1-1.8-2.016,18.814,18.814,0,0,0-.636-2.7c-.622-1.251-2.117-1.738-3.432-2.21s-2.774-1.244-3.01-2.617a3.269,3.269,0,0,1,1.237-2.8c1-.93,2.252-1.5,3.318-2.345.493-.393.922-.858,1.373-1.287.036.286.036.586.043.872a18.391,18.391,0,0,0,3.547,9.761c.594.865,1.244,1.709,1.888,2.546.787,1.008,1.566,2.024,2.353,3.032C201.085,359.033,203.366,361.957,206.455,363.852Z" transform="translate(-95.898 -165.831)" fill="#9b1e39"/>
          <path id="Path_74" data-name="Path 74" d="M199.428,348.532a6.231,6.231,0,0,1-.656-1.01c-.137-.3-.21-.621-.345-.919a3.347,3.347,0,0,0-.738-1,5.324,5.324,0,0,0-5-1.3c-.766.205-1.591.764-1.546,1.555a1.6,1.6,0,0,0,1.1,1.26.663.663,0,0,1,.368.241.672.672,0,0,1,.041.358,2.832,2.832,0,0,0,1.141,2.384c.786.573,1.895.761,2.4,1.59a8.769,8.769,0,0,1,.4.929,2.611,2.611,0,0,0,2.478,1.467C202.745,353.837,200.6,350.167,199.428,348.532Z" transform="translate(-97.623 -167.019)" fill="#2f88c0"/>
          <path id="Path_75" data-name="Path 75" d="M154.054,343.99a8.9,8.9,0,0,1-1.5,5.365,9.132,9.132,0,0,0-1.514,2.514,6.053,6.053,0,0,0,.425,3.443,3.179,3.179,0,0,0,3.387,2.952,18.426,18.426,0,0,0,5.862-.171,4.687,4.687,0,0,1,2.418-.27c1.472.438,1.949,2.48,3.392,3a17.436,17.436,0,0,0,1.876.281c1.685.409,2.834,2.5,4.553,2.269a2.427,2.427,0,0,0,1.833-2.693,4.989,4.989,0,0,0-1.8-3.028,11.142,11.142,0,0,0-2.706-1.808c-2.468-1.168-5.5-1.521-7.236-3.628-1.026-1.246-1.494-3.01-2.885-3.83-.592-.349-1.417-.636-1.452-1.324a1.1,1.1,0,0,1,.672-.967,5.252,5.252,0,0,1,1.2-.327c.445-.1,2.074-.523,2.177-1.092.137-.759-1.71-.393-2.186-.389A59.048,59.048,0,0,1,154.054,343.99Z" transform="translate(-86.162 -166.981)" fill="#4cb4d5"/>
          <path id="Path_76" data-name="Path 76" d="M206.172,360.877a9.939,9.939,0,0,0-1.04-4.188,4.238,4.238,0,0,0-3.466-2.29,1.494,1.494,0,0,0-1.11.377,1.783,1.783,0,0,0-.281,1.479,4.868,4.868,0,0,0,1.12,2.749c.682.723,1.732,1.156,2.079,2.088.106.285.134.592.23.881.21.636,1.22,1.867,2.019,1.7C206.693,363.475,206.227,361.622,206.172,360.877Z" transform="translate(-100.215 -169.947)" fill="#4cb4d5"/>
          <path id="Path_77" data-name="Path 77" d="M248.572,321.531c-3.246.844-6.5,1.695-9.789,2.338-4.6.9-9.253,1.416-13.9,1.895-.372.036-.744.079-1.115.114l-4.562.472a7.219,7.219,0,0,1,.5-3.161,31.963,31.963,0,0,1,2-5.2,27.479,27.479,0,0,1,2.91-4.219c.315-.408.615-1,1.108-1.2a7.079,7.079,0,0,1,2.481.057c1.323.057,2.646.1,3.969.143q3.582.1,7.179.122c.608,0,6.049-.336,6.171-.036Q247.234,317.126,248.572,321.531Z" transform="translate(-105.608 -157.997)" fill="#fe6361"/>
          <path id="Path_78" data-name="Path 78" d="M129.4,356.512a46,46,0,0,1-5.606-.429c-2.367-.343-4.748-.9-7.129-.615q2.4-4.011,4.812-8.016c1.1-1.838,2.188-3.547,4.2-4.047a2.313,2.313,0,0,1,1.187.751,3.516,3.516,0,0,1,.586,2.274,14.8,14.8,0,0,1-.536,3.8,5.173,5.173,0,0,0-.322,2.732c.293,1.008,1.259,1.645,1.974,2.41A5.467,5.467,0,0,1,129.4,356.512Z" transform="translate(-76.4 -166.814)" fill="#f45b5b"/>
          <path id="Path_79" data-name="Path 79" d="M408.077,262.868a141.5,141.5,0,0,1-6.264,22.4,25.065,25.065,0,0,1-2.7,5.656c-1.566,2.274-3.783,4.033-5.341,6.307a43.7,43.7,0,0,0-3.189,6.521c-5.892,12.728-18.57,21.094-25.449,33.307-2.453,4.362-4.162,9.189-7.308,13.078a8.612,8.612,0,0,1-3.461,2.81c-2.639,1.023-5.527-.143-8.087-1.452.8-2.832,2.653-5.678,2.517-8.652a12.237,12.237,0,0,1-.114-3.018c.336-1.559,1.752-2.6,2.853-3.747,2.925-3.032,4-7.379,6.407-10.826,3.146-4.5,8.273-7.115,12.392-10.747,3.682-3.261,6.55-7.322,9.374-11.355,1.1-1.573,2.245-3.254,2.367-5.17.129-1.938-.815-3.883-.436-5.785.472-2.367,2.746-3.833,4.4-5.585,2.824-2.975,4.019-7.115,4.777-11.141s1.2-8.187,2.889-11.927a12.226,12.226,0,0,1,2.925-4.047q3.207-.075,6.4-.458c1.888-.229,4.355-.229,5.048,1.545A4.123,4.123,0,0,1,408.077,262.868Z" transform="translate(-141.829 -142.746)" fill="#b6cbd1"/>
          <path id="Path_80" data-name="Path 80" d="M255.894,303.515c-8.561,1.8-13.894,8.2-15.821,16.437a9.33,9.33,0,0,1-5.583,7.074,14,14,0,0,0-4.839,3.19c-2.734,3.082-3,7.179-3.53,11.055-.578,4.257-2.908,5.712-6.686,6.9a17.25,17.25,0,0,0-6.146,3.009c-3.334,2.79-4.041,6.82-5.043,10.83-.807,3.228-2.783,9.4-7.309,8.714-4.039-.609-4.814-4.31-5.392-7.663-.656-3.809-1.492-7.62-5.565-8.955-.877-.287-1.253,1.093-.38,1.379,5.913,1.937,3.53,10.174,6.762,14.313,2.206,2.825,5.929,2.935,8.744.908,3.769-2.714,4.2-7.649,5.333-11.768.959-3.494,2.621-6.344,5.931-8.069,2.252-1.173,4.822-1.442,7.072-2.589,3.65-1.859,3.892-5.359,4.326-9.025.368-3.106,1.178-6.549,3.59-8.749,2.032-1.854,4.89-2.278,6.983-4.022,3.5-2.917,2.995-8.13,4.985-11.938a18.808,18.808,0,0,1,12.95-9.652C257.174,304.706,256.793,303.326,255.894,303.515Z" transform="translate(-97.042 -155.443)" fill="#ff605d"/>
          <path id="Path_81" data-name="Path 81" d="M343.514,300.915q-2.864.064-5.72.193c.007-.215.021-.429.036-.629a13.648,13.648,0,0,0-2.481-8.359,30.1,30.1,0,0,0-6.135-6.364c-.837-.672-3.49-1.881-4.283-2.846.229-.107.458-.215.687-.315a6.785,6.785,0,0,1,.837-.315c1.816-.565,3.153-.079,5.034.98,3.818,2.152,6.579,5.806,9.067,9.317C342.306,295.058,344.1,297.933,343.514,300.915Z" transform="translate(-135.745 -149.329)" fill="#c13636"/>
          <path id="Path_82" data-name="Path 82" d="M232.168,312.771a8.754,8.754,0,0,1-1.595,4.019c-1.9,2.989-3.79,5.985-5.692,8.974-.372.036-.744.079-1.115.114l-4.562.472a7.219,7.219,0,0,1,.5-3.161,31.963,31.963,0,0,1,2-5.2,27.479,27.479,0,0,1,2.91-4.219c.315-.408.615-1,1.108-1.2a7.079,7.079,0,0,1,2.481.057C229.522,312.686,230.845,312.729,232.168,312.771Z" transform="translate(-105.608 -157.997)" fill="#db4646"/>
        </g>
      </g>
    </g>
  </g>
</svg>
