<svg xmlns="http://www.w3.org/2000/svg" width="361" height="281" viewBox="0 0 361 281"><g transform="translate(0 -64)"><path d="M790,86H429V270l227,97,118-32h16Z" transform="translate(-429 -22)" fill="#cbcbca"/><g transform="translate(-393.96 39.218)"><path d="M554.788,140.554c-.152-2.654-1.466-5.027-2.856-7.539-.611-1.1-1.243-2.245-1.768-3.413-2.28-5.077-2.8-11.377-1.559-18.726.623-3.669,1.6-7.306,2.549-10.822.64-2.379,1.3-4.839,1.844-7.274,2.415-10.855,3.042-23.272,3.281-34.228l1.262,1.125c-.241,11.035-.491,22.446-2.939,33.46-.55,2.47-1.217,4.948-1.863,7.344-.937,3.479-1.906,7.077-2.515,10.669-1.19,7.023-.706,13,1.437,17.779.5,1.106,1.112,2.217,1.707,3.291,1.419,2.562,2.886,5.212,3.058,8.241Z" fill="#c15252" stroke="#c9c9c9" stroke-miterlimit="10" stroke-width="1"/><path d="M555.649,53.553c-.655.11-6.993.11-6.556-15.3s7.212-13.112,12.239-13.112,12.129-1.967,15.188,3.278,2.513,24.8-1.42,25.679-6.557-.328-6.557,1.966.219,7.431-1.966,6.885.109-8.851-1.421-9.179-6.228-.984-6.556.983-.328,6.775-1.858,6.447S555.649,53.553,555.649,53.553Z" fill="#c9c9c9"/><path d="M589.97,57.857c-1.842,2.321-3.643,3.5-4.356,6.372-2.05,8.279-2.235,18.546-2.4,27.073a43.738,43.738,0,0,0,.821,10.585,27.448,27.448,0,0,0,16.635,19.17,40.041,40.041,0,0,0,15.137,2.168c5.786-.112,13.148-1.274,16.08-7.025a20.015,20.015,0,0,0,1.524-13.9c-1.267-5-5.307-8.2-6.9-12.969a38.724,38.724,0,0,1-2.339-11.99c-.6-3.077-.448-6.263-1.025-9.345s-2.113-6.255-4.96-7.57c-2.116.093-3.827-.627-5.829-1.315-5.987-2.059-12.1-3.983-18.413-4.419.627.387.45,1.428-.137,1.873a3.82,3.82,0,0,1-2.113.523A2.093,2.093,0,0,0,589.97,57.857Z" fill="#363c51"/><path d="M589.248,101.616s-22.952,7.312-24.859,10.1-5.72,63.408-5.72,63.408l48.22,1.657,15.143-1.42s7.951-42.807,7.658-49.264-19.664-24.481-19.664-24.481Z" fill="#a5cace"/><path d="M557.937,168.078l18.744-21.351,37.082-9.394v21.934l9.5,7.791-1.231,10.669-45.617.827Z" fill="#86abad" opacity="0.21"/><path d="M532.619,66.416s14.353,8.639,11.685,17.067-12.044-9.724-12.044-9.724Z" fill="#f4e390"/><path d="M678.658,244.6s4.633-17.2.265-23.92-24.608-10.142-24.608-10.142l-34.226-13.147-20.76-2.484L586.384,205.35l10.408,13,35.754,10.5Z" fill="#a5cace"/><path d="M615.36,224.68s-.645-19.419-13.1-17.515-52.527,15.485-61.8,9.915c-11.227,6.9-6.346,19.832,2.082,19.588S603.5,232.252,615.36,224.68Z" fill="#86abad"/><path d="M627.154,220.676s-9.056-2.082-11.114,2.314-2.3,9.526,4.537,12.945,48.36,16.608,53.489,15.143,6.106-10.258,2.442-12.212S629.091,223.979,627.154,220.676Z" fill="#86abad"/><path d="M552.922,162.174s53.489,9.77,67.166,7.816c11.968-3.779,6-10.837,6-10.837l-83.547-9.862Z" fill="#719696"/><path d="M552.678,159.732s62.281,11.479,70.586,7.327S624,156.8,624,156.8l-39.078-5.862-35.006-4.212Z" fill="#a5cace"/><path d="M462.057,94.56s-10.007,6.31-9.03,18.278,52.958,107.71,69.1,110.641,19.031-8.06,19.031-8.06l-50.028-75.471Z" fill="#86abad"/><path d="M619.1,153.7s1.116-4.394,3.667-4.469,1.407,6.3,1.407,6.3Z" fill="#d6a292"/><path d="M498.949,79.755s-36.885,11.637-39.083,16.987,27.844,69.61,59.839,86.083,34.734-33.534,34.734-33.534l-28.5-62.6Z" fill="#a5cace"/><path d="M684.833,218.092a7.879,7.879,0,0,0-.966-.161c-1-.1-2.43-.306-4.1-.569a8.06,8.06,0,0,1-.33,6.783c1.768-.031,3.31-.085,4.43-.169a8.266,8.266,0,0,0,1.831-.335C686.39,221.841,685.533,219.488,684.833,218.092Z" fill="#e8e8e8"/><path d="M679.767,217.362c-7.176-1.134-18.744-3.377-19.073-3.45l-6.234,1.309,4.743,8.755s12.372.306,20.234.169A8.06,8.06,0,0,0,679.767,217.362Z" fill="#ad4444"/><path d="M684.833,218.092c.7,1.4,1.557,3.749.865,5.549C689.414,222.495,688.683,218.982,684.833,218.092Z" fill="#c6c6c6"/><path d="M554.393,160.623a44.356,44.356,0,0,1,11.472-1.122,88.8,88.8,0,0,1,9.574,1.016c6.362.909,12.726,1.818,19.048,2.972,10.048,1.834,20.449,4.279,30.323,1.668a3.386,3.386,0,0,0,2.421-1.56s1.268-3.17-3.967-4.777-34.731-6.583-34.731-6.583l-17.73-2.475-6.6-1.1-9.813,3.576s-1.658-.957-1.523-.429S554.393,160.623,554.393,160.623Z" fill="#86abad" opacity="0.33"/><path d="M584.578,69.88s-.855-23.554,18.834-22.355c.528-3.21.643-5.65,2.519-4.3.711.512-1.418,4.256-1.418,4.256s1.825-3.467,4.095-2.831-1.719,2.419-1.719,2.419,23.448-.659,17.538,25.45S584.578,69.88,584.578,69.88Z" fill="#363c51"/><path d="M683.857,222.992c-8.838-1.091-19.6-1.145-19.6-1.145l-4.513,5.3a68.694,68.694,0,0,0,9.167,4.867,166.494,166.494,0,0,0,16.548-1.9A6.381,6.381,0,0,1,683.857,222.992Z" fill="#c15252"/><path d="M692.245,224.68a43.318,43.318,0,0,0-8.388-1.688,6.381,6.381,0,0,0,1.6,7.125c3.712-.7,6.643-1.59,6.873-2.7A5.353,5.353,0,0,0,692.245,224.68Z" fill="#e8e8e8"/><path d="M534.931,156.173s-30.8-70.015-47.093-72.69c0,0-19.215,6.811-23.216,9.523s-6.414,3.415-2.992,11.706c3.257,7.89,21.124,50.075,45.834,69.562,1.174.725,4.205,1.964,5.387,2.507C537.367,188.041,534.931,156.173,534.931,156.173Z" fill="#86abad" opacity="0.21"/><path d="M692.245,224.68a5.353,5.353,0,0,1,.088,2.737c-.66,3.178-23.412,4.6-23.421,4.6a11.644,11.644,0,0,0,3.571.96c3.8.136,22.631-.677,22.767-5.827C695.276,226.147,694.116,225.338,692.245,224.68Z" fill="#c6c6c6"/><path d="M622.582,81.268A64.9,64.9,0,0,0,624,71.252c-4.771-.525-10.419-4.467-13.426-7.706,1.951,3.8,5.309,8.784,9.876,9.775,0,5.717-7.663,17.261-16.666,16.964,0,0-2.3,7.2,6.977,10.176l-.811-8.616C616.212,90.98,621.09,87.241,622.582,81.268Z" fill="#ea9781"/><path d="M610.947,102.471c-7.6,3.454-12.632-.521-15-3.162l-10.891,3.749s12.891,17.7,17.232,21.923c9.684-1.794,19.742-11.266,19.742-11.266Z" fill="#fff"/><path d="M611.409,103.035l-.462-.564-.189-2.01c-9.279-2.976-6.977-10.176-6.977-10.176,9,.3,16.666-11.247,16.666-16.964-4.567-.991-7.925-5.97-9.876-9.775a13.856,13.856,0,0,1-1.475-1.838c-2.418,6.366-7.893,5.606-7.893,5.606s3.183-3.314,2.209-5.606a24.221,24.221,0,0,1-15.973,5.6c-.358,5.707-.4,13.517,1.667,16.659a15.3,15.3,0,0,0,8.19,6.525l-.77,8.618-.577.2C598.315,101.95,603.806,106.489,611.409,103.035Z" fill="#f7b89f"/><path d="M560.858,153.643c.283.474,15.133,6.345,21.149,3.924,11.3,1.43,34.033,3.531,34.033,3.531v-7.455s-29.512-10.581-32.277-10.819-18.678-5.34-18.678-5.34S557.645,148.252,560.858,153.643Z" fill="#f7b89f"/><path d="M487.235,151.31s25.827-28.335,55.823-27.021" fill="none" stroke="#86abad" stroke-miterlimit="10" stroke-width="1"/><path d="M472.157,127.2s26.445-24.892,61.748-26.781" fill="none" stroke="#86abad" stroke-miterlimit="10" stroke-width="1"/><path d="M569.68,175.787s43.449-6,57.611-1.2c12.243,9.362,36.967,39.608,36.967,39.608s-3.36,6.481-8.641,6.481S618.41,192.35,618.41,192.35s-28.806-6.481-29.526-6.481-14.163,4.321-14.163,4.321l-11.762-6Z" fill="#373c44"/><path d="M516.606,123.046c-.058-.154,17.34,1.243,17.34,1.243s13.991,11.593,16.99,18.853,6.312,23.042,6.312,23.042,12.966.921,21.962,8.5l-16.753,23.225-34.144-18.939L516.062,140.3Z" fill="#c15252"/><path d="M552.517,153.087l10.074,1.7,4.562-17.3s-24.515-14.728-34.534-13.763S552.517,153.087,552.517,153.087Z" fill="#c15252"/><path d="M525.032,180.861s2.852,36.694,20.03,40.055,62.3-17.763,64.706-17.283c.96,3.6,8.4,27.365,54.73,26.165,4.8-4.8,3.361-7.2,3.361-7.2s-34.327-30.246-46.329-39.607c-29.285-3.6-67.906,7.979-67.906,7.979S532.713,180.654,525.032,180.861Z" fill="#3f454c"/><path d="M595.685,73.759c0,1.012-.463,1.832-1.034,1.832s-1.034-.82-1.034-1.832.463-1.832,1.034-1.832S595.685,72.747,595.685,73.759Z" fill="#363c51"/><path d="M616.04,74.35c0,1.012-.463,1.832-1.034,1.832s-1.034-.82-1.034-1.832.463-1.832,1.034-1.832S616.04,73.338,616.04,74.35Z" fill="#363c51"/><path d="M602.716,72.518l-2.482,6.52H605.2" fill="none" stroke="#363c51" stroke-miterlimit="10" stroke-width="1"/><path d="M606.889,84.758s6.177,1.132,8.117-5.72" fill="none" stroke="#363c51" stroke-miterlimit="10" stroke-width="1"/><path d="M602.716,124.289,587.25,100.417l-8.04,3.885,22.745,21.942,23.416-8.2-4.192-7.205Z" fill="#bfe6e8"/><path d="M623.775,73.759s4.167-3.882,7.222-1.242-1.384,9.626-8.078,7.238A16.755,16.755,0,0,1,623.775,73.759Z" fill="#e2897a"/><path d="M587.384,76.872c-7.267,1.281-10.878-6.634-7.059-8.416s6.932,3.471,6.932,3.471Z" fill="#e2897a"/><path d="M608.875,49.374l-13.522.094-7.306,11.24s-.373,2.846-.608,6.6a24.221,24.221,0,0,0,15.973-5.6c.974,2.292-2.209,5.606-2.209,5.606s5.475.76,7.894-5.606c2.159,3.348,9.169,8.914,14.9,9.544.43-5.557.43-10.544.43-10.544Z" fill="#363c51"/><path d="M586.726,74.689c-1.109-2.057-3.056-4.416-5.538-4.8-.387-.061-.554.532-.163.593a5.947,5.947,0,0,1,3.265,1.884,4.774,4.774,0,0,0-2.994.2c-.363.155-.049.685.311.532a4.56,4.56,0,0,1,3.295.1.325.325,0,0,0,.136.028A13.1,13.1,0,0,1,586.2,75C586.383,75.349,586.915,75.039,586.726,74.689Z" fill="#363c51"/><path d="M630.093,75.882c-.941-.785-2.364-.636-3.555-.305a3.99,3.99,0,0,1,3.364-1.725c.344.041.341-.5,0-.539-2.478-.3-4.435,2.5-5.426,4.429-.159.308.306.581.465.272a14.3,14.3,0,0,1,1.019-1.692c1.065-.379,2.8-.855,3.752-.059C629.976,76.484,630.36,76.105,630.093,75.882Z" fill="#363c51"/><path d="M543.178,81.968s2.036-3.166,3.185-1.924c2.455,2.654.929,10.882-2.124,11.081S543.178,81.968,543.178,81.968Z" fill="#e2897a"/><path d="M542.413,78.588c-1.842-3.728-5.585-6.962-8.467-9.059-1.726,3.373-6.171,8.927-16.718,8.927-15.361,0-6.629,33.668,5.681,35.562,2.577,4.813-1.311,8.357-4.4,10.271,4.741,2.947,12.669,6.7,17.39,2.577l-2.729-10.992s9.772-2.481,13.155-7.367S545.646,85.128,542.413,78.588Z" fill="#f7b89f"/><path d="M532.619,83.967l7.84,5.257-1.937,3.781" fill="none" stroke="#363c51" stroke-miterlimit="10" stroke-width="1"/><path d="M523.194,87.863c.272,1.048.014,2.021-.576,2.174s-1.288-.573-1.559-1.621-.014-2.022.575-2.175S522.922,86.814,523.194,87.863Z" fill="#363c51"/><path d="M542.7,83.206c.271,1.048.014,2.022-.576,2.175s-1.288-.574-1.56-1.622-.014-2.021.576-2.174S542.43,82.158,542.7,83.206Z" fill="#363c51"/><path d="M525.944,92.378s1.6,5.964,8.987,3.948" fill="none" stroke="#363c51" stroke-miterlimit="10" stroke-width="1"/><path d="M504.824,97.031s-1.062-6.038-7.565-3.384,0,12.873,8.826,10.219A22.983,22.983,0,0,0,504.824,97.031Z" fill="#e2897a"/><path d="M522.909,114.018c-12.31-1.894-21.042-35.562-5.681-35.562,10.547,0,14.992-5.554,16.718-8.927a41.865,41.865,0,0,0-3.861-2.518l-14.81,3.608L505.2,75.956S502.8,84.9,503.473,98.584a19.232,19.232,0,0,0,12.554,17.44l.579,7.022c.547.376,1.188.8,1.9,1.243C521.6,122.375,525.486,118.831,522.909,114.018Z" fill="#ea9781"/><path d="M504,96.329s-8.494-7.367-8.57-14.81,19.32-13.832,22.327-15.26-4.21-14.509-1.2-15.636,4.36,3.307,4.36,3.307-1.859-5.337,1.213-5.562,4.952,7.893,4.952,7.893,0-9.171,5.112-8.72,6.84,20.222,0,23.6c-4.567,2.259-9.765,1.471-14.666,1.855-6.912.542-13.433,5.813-13.86,13.1C503.412,90.39,506.781,95.953,504,96.329Z" fill="#f4e390"/><path d="M476.861,181.709s-1.852,2.2,1.812,8.183,70.926,26.26,81.38,23.817c9.38-2.191,12.91-11.264,13.537-13.106a1.98,1.98,0,0,0,.1-.648l-.011-5.3Z" fill="#719696"/><path d="M511.157,177.317s-9.381-5.52-16.536-4.591-17.658,6.082-18.391,10.1,74.834,25.511,83.823,24.29a15.833,15.833,0,0,0,13.63-12.457C574.721,190.19,511.157,177.317,511.157,177.317Z" fill="#a5cace"/><path d="M520.711,92.054a1.687,1.687,0,1,0,2.334-.5A1.688,1.688,0,0,0,520.711,92.054Z" fill="#e2897a" opacity="0.68"/><path d="M541.906,86.79a1.687,1.687,0,1,0,2.334-.5A1.688,1.688,0,0,0,541.906,86.79Z" fill="#e2897a" opacity="0.68"/><path d="M593.236,78.119a1.687,1.687,0,1,0,2.334-.5A1.687,1.687,0,0,0,593.236,78.119Z" fill="#e2897a" opacity="0.68"/><path d="M613.591,77.78a1.687,1.687,0,1,0,2.334-.5A1.688,1.688,0,0,0,613.591,77.78Z" fill="#e2897a" opacity="0.68"/><path d="M563.508,151.31l-13.6-5.754,1.119,12.388s-8.4.481-12.6,5.764a38.384,38.384,0,0,1,13.953,0s-10.973,3.192-12.869,6.54c3.935-.85,18.42-1.392,18.42-1.392l17.781,10.665,3.492-4.84a39.7,39.7,0,0,0-21.962-8.5c-1.322-5.868-3.066-12.816-3.066-12.816l8.409,1.419Z" fill="#ea9781" opacity="0.3"/><path d="M527.357,171.968c1.214-.042,3.812,0,3.812,0v-20.16l4.72,21.739s14.646,3.406,20.242,9.467l-28.774-7.063Z" fill="#ea9781" opacity="0.3"/><path d="M577.32,141.227s7.439-.945,11.213,2.925c-.486,4.19-.486,4.509-.486,4.509l-10.727-1.934Z" fill="#fff"/><path d="M503.871,174.054c1.685,1.186.476,5.627.377,6.5-.4,3.51,2.692,6.513,5.677,7.874,3.235,1.476,6.876,1.691,10.405,2.121a79.777,79.777,0,0,1,12.58,2.578c3.762,1.092,8.344,2.276,11.6,4.518a5.507,5.507,0,0,1,2.445,3.5c.157.958-.031,1.956.194,2.9.6,2.513,7.023,2.9,9.142,3.046,4.354.307,8.918-.542,12.21-3.6,3.141-2.916,5.705-7.741,4.931-9.509-1.4-3.194-38.438-13.118-38.438-13.118s-13.916-2.143-23.235-4.123C508.319,176.007,504.835,174.109,503.871,174.054Z" fill="#86abad" opacity="0.33"/><path d="M507.534,168.078s-.642,12.941,1.494,15.94c5.665,3,42.7,9.627,42.7,9.627l3.748-11.155-27.16-7.784L526,168.078Z" fill="#f7b89f"/><path d="M554.048,182.062s9.28,2.107,14.731,7.86,2.876,10.6,2.119,10.6-1.817-3.818-1.817-3.818,1.211,7.3-1.211,7.755-3.958-5.972-6.279-6.218c1.65,2.489-.079,5.957-1.291,6.239s-4.326-10.053-8.575-10.832S548.683,182.686,554.048,182.062Z" fill="#f7b89f"/><path d="M561.388,197.974s1.345.39,3.444,3.871,2.83,2.737,3.879,2.017,1.129-7.419-.811-8.959" fill="none" stroke="#ea9781" stroke-miterlimit="10" stroke-width="1"/><path d="M569.424,197.811s.269,2.671,1.474,2.708,2.616-4.821-1.2-9.545" fill="none" stroke="#ea9781" stroke-miterlimit="10" stroke-width="1"/><path d="M556.467,198.267s2.619,6.331,3.833,6.21,3.151-4.81,0-8.366" fill="none" stroke="#ea9781" stroke-miterlimit="10" stroke-width="1"/><path d="M568.295,204.146h-.684s.127-8.2-3.833-11.106" fill="none" stroke="#ea9781" stroke-miterlimit="10" stroke-width="1"/><path d="M507.444,172.008s6.467,4.029,16.184,2.19c-1.051,3.808,42.807,7.868,47.27,26.321,2.8-.834,2.8-6.258-3.745-12.128-6.488-5.938-16.338-6.682-38.84-13.685l-.956-2.738a71.3,71.3,0,0,1-19.913-1.72C507.45,171.178,507.444,172.008,507.444,172.008Z" fill="#ea9781" opacity="0.3"/><path d="M516.513,123.179s-18.275,10.191-17.544,42.562c7.116,7.911,31.468,6.085,31.468,6.085S519.8,124.782,516.513,123.179Z" fill="#c15252"/><path d="M671.3,222.716s-2.177,1.826-1.123,6.118" fill="none" stroke="#fff" stroke-miterlimit="10" stroke-width="0.25"/><path d="M677.336,223.375a5.481,5.481,0,0,0-.923,5.841" fill="none" stroke="#fff" stroke-miterlimit="10" stroke-width="0.25"/><path d="M669.519,215.582a3.6,3.6,0,0,1,1.076,4.159" fill="none" stroke="#fff" stroke-miterlimit="10" stroke-width="0.25"/><path d="M675.545,216.516a3.6,3.6,0,0,1,1.076,4.16" fill="none" stroke="#fff" stroke-miterlimit="10" stroke-width="0.25"/><path d="M632.762,152.237a5.81,5.81,0,1,1-5.809-5.809A5.81,5.81,0,0,1,632.762,152.237Z" fill="#c15252"/><path d="M621.143,151.21s8.353,2.768,10.382-2.549c1.777,1.118-.593,8.35-.593,8.35l-3.778,2.008-4.981-3.481S620.893,154.389,621.143,151.21Z" fill="#373c44" opacity="0.08"/><path d="M625.371,162.539a50.916,50.916,0,0,0,5.259-1.441c1.05-.486,4.615-10.874,2.132-11.807s-4.058,9.945-4.321,9.977-3.07,1.83-3.07,1.83Z" fill="#d6a292"/><path d="M612.673,152.443a10.543,10.543,0,0,1,8.092,1.063c4.443,2.393,5.81,3.93,5.81,3.93s8.541-6.394,10.936-3.759c-1.025,3.076-10.765,5.639-11.021,8.715s-11.722-1.562-11.722-1.562S611.819,154.494,612.673,152.443Z" fill="#f7b89f"/><path d="M624.164,147.992a.688.688,0,0,0-.154.734.589.589,0,0,0,.73.141c.249-.105.453-.3.7-.408.313-.14.927-.1,1.137-.413s-.107-.778-.411-.94C625.478,146.738,624.555,147.479,624.164,147.992Z" fill="#fff"/><path d="M555.95,30.931c-2.6,1.1-4.14,4.016-4.638,6.682a15.093,15.093,0,0,0,.658,7.44c.646,1.958,1.719,3.941,3.573,4.842s4.054.523,6.114.7c2.041.178,4.014.922,6.062.963a5.679,5.679,0,0,0,3.014-.684,6.748,6.748,0,0,0,2.379-2.826A17.791,17.791,0,0,0,574.931,37.5a8.033,8.033,0,0,0-2.688-5.455,6.708,6.708,0,0,0-3.737-1.228,16.927,16.927,0,0,0-2.152.126,16.1,16.1,0,0,1-2.362-.121C561.319,30.611,558.527,29.845,555.95,30.931Z" fill="#c15252"/><path d="M555.42,37.557l1.245,5.256,11.065.484,1.8-6.777Z" fill="#fff"/><path d="M591.7,147.6a13.927,13.927,0,0,1-3.212-.468l.38-1.6a9.313,9.313,0,0,0,3.859.331,2.631,2.631,0,0,0,1.487-4.724,9.968,9.968,0,0,0-3.027-1.869,120.457,120.457,0,0,0-12.894-5.072c-.519-.17-1.039-.336-1.56-.5a40.644,40.644,0,0,1-9.376-3.9c-3.918-2.457-6.444-6.137-6.756-9.842a19.209,19.209,0,0,1,1.054-6.8l.158-.564c4.728-16.985,4.58-34.912,4.436-52.248l1.642-.014c.144,17.451.294,35.495-4.5,52.7l-.159.569a17.974,17.974,0,0,0-1,6.22c.269,3.194,2.509,6.4,5.992,8.59a39.492,39.492,0,0,0,9,3.722q.788.252,1.571.507a122.111,122.111,0,0,1,13.071,5.141,11.469,11.469,0,0,1,3.51,2.209,4.663,4.663,0,0,1,1.381,4.293,4.616,4.616,0,0,1-3.726,3.193A7.071,7.071,0,0,1,591.7,147.6Z" fill="#c15252" stroke="#c9c9c9" stroke-miterlimit="10" stroke-width="1"/><path d="M552.554,29.188a.251.251,0,0,0,.12.187.393.393,0,0,0,.3,0c.984-.269,1.74-1.037,2.73-1.283.488-.121,1.7-.526,1.512-1.251-.137-.524-1.28-.69-1.744-.623a3.124,3.124,0,0,0-1.942,1.226C553.356,27.67,552.484,28.707,552.554,29.188Z" fill="#fff"/><path d="M563.508,151.31s34.485,6.329,47.266,6.036,14.6,6.1,14.6,6.1-4.228.6-10.24-2.432c-2.884-.123-33.124-3.446-33.124-3.446s-3.6,2.712-19.416-2.78A11.277,11.277,0,0,1,563.508,151.31Z" fill="#ea9781"/></g></g></svg>