<!DOCTYPE svg PUBLIC "-//W3C//DTD SVG 20010904//EN" "http://www.w3.org/TR/2001/REC-SVG-20010904/DTD/svg10.dtd">
<svg version="1.0" xmlns="http://www.w3.org/2000/svg" width="855px" height="807px" viewBox="0 0 8550 8070" preserveAspectRatio="xMidYMid meet">
<g id="layer101" fill="#2c1606" stroke="none">
 <path d="M4352 8006 c9 -109 78 -205 198 -274 25 -14 47 -27 49 -28 1 -2 -7 -74 -19 -161 -54 -395 -127 -701 -242 -1003 -59 -156 -44 -145 -144 -99 -124 57 -330 123 -474 152 -188 38 -355 51 -569 44 -281 -9 -489 -47 -758 -136 -66 -23 -126 -41 -131 -41 -23 0 -194 506 -258 765 -28 114 -84 403 -84 434 0 4 29 26 64 48 70 45 138 122 156 179 7 20 13 60 14 88 l1 51 -572 3 -573 2 0 -57 c0 -149 128 -279 340 -345 65 -20 95 -23 232 -23 l157 0 6 -25 c2 -14 9 -56 15 -95 39 -252 121 -549 252 -913 39 -106 68 -195 66 -196 -1 -1 -55 -31 -118 -66 -273 -150 -509 -339 -707 -564 l-60 -69 -45 42 c-25 22 -71 54 -101 69 -31 16 -66 41 -77 55 -17 21 -30 27 -62 27 -69 0 -185 -68 -252 -149 -41 -49 -50 -75 -43 -129 3 -29 -3 -50 -28 -97 -18 -33 -38 -78 -45 -100 -7 -22 -26 -59 -41 -82 -35 -50 -36 -64 -6 -99 l23 -27 -89 -86 c-198 -191 -333 -389 -399 -586 -20 -60 -23 -90 -23 -215 0 -137 2 -150 31 -232 60 -167 156 -309 318 -470 103 -103 275 -238 379 -299 l59 -34 57 -141 c125 -308 330 -630 736 -1154 178 -229 298 -393 388 -527 312 -466 447 -857 447 -1300 0 -112 3 -143 13 -143 20 0 386 187 505 258 424 253 867 604 1232 978 665 680 1125 1448 1314 2194 l34 135 93 83 c113 101 303 246 386 294 88 52 185 88 237 88 146 0 421 -167 698 -425 l71 -66 -31 -32 c-18 -18 -32 -42 -32 -53 0 -32 59 -113 87 -120 16 -4 22 -11 19 -21 -3 -8 -6 -38 -6 -66 0 -51 -1 -53 -48 -82 -81 -51 -210 -184 -278 -285 -225 -338 -242 -673 -55 -1065 59 -124 125 -231 278 -450 245 -352 381 -595 539 -965 29 -68 57 -126 61 -127 4 -2 35 59 67 134 156 363 319 655 535 958 137 193 190 276 255 405 155 303 190 568 109 825 -45 142 -142 309 -245 420 l-55 60 43 2 c125 6 111 60 -41 154 -38 24 -119 79 -180 123 -189 137 -199 143 -251 169 -102 51 -182 71 -289 72 -95 0 -100 1 -101 22 -2 33 -62 112 -90 119 -24 6 -37 0 -122 -62 -21 -16 -24 -15 -98 52 -178 161 -359 295 -510 375 -134 72 -222 101 -330 107 -86 4 -95 3 -176 -30 -112 -45 -221 -111 -369 -225 -66 -51 -121 -93 -122 -93 -2 0 1 39 6 88 12 122 2 486 -18 612 -58 375 -195 725 -412 1055 -181 274 -396 496 -630 649 -35 22 -63 44 -63 47 0 4 24 69 54 146 121 311 193 596 251 993 14 96 25 180 25 185 0 6 54 10 143 10 160 1 226 14 342 70 141 68 223 171 233 291 l5 64 -578 0 -578 0 5 -64z m-3631 -2978 c20 -15 48 -28 61 -28 l23 0 -41 -127 c-84 -254 -118 -475 -118 -753 0 -201 12 -326 45 -489 11 -52 18 -96 16 -97 -6 -6 -168 138 -243 215 -181 189 -284 391 -284 555 1 124 70 295 181 446 76 103 295 323 312 313 7 -3 28 -19 48 -35z"/>
 </g>
<g id="layer102" fill="#e21717" stroke="none">
 <path d="M4352 8006 c9 -109 78 -205 198 -274 25 -14 47 -27 49 -28 1 -2 -7 -74 -19 -161 -54 -395 -127 -701 -242 -1003 -59 -156 -44 -145 -144 -99 -124 57 -330 123 -474 152 -188 38 -355 51 -569 44 -281 -9 -489 -47 -758 -136 -66 -23 -126 -41 -131 -41 -23 0 -194 506 -258 765 -28 114 -84 403 -84 434 0 4 29 26 64 48 70 45 138 122 156 179 7 20 13 60 14 88 l1 51 -572 3 -573 2 0 -57 c0 -149 128 -279 340 -345 65 -20 95 -23 232 -23 l157 0 6 -25 c2 -14 9 -56 15 -95 39 -252 121 -549 252 -913 39 -106 68 -195 66 -196 -1 -1 -55 -31 -118 -66 -273 -150 -509 -339 -707 -564 l-60 -69 -45 42 c-25 22 -71 54 -101 69 -31 16 -66 41 -77 55 -17 21 -30 27 -62 27 -69 0 -185 -68 -252 -149 -41 -49 -50 -75 -43 -129 3 -29 -3 -50 -28 -97 -18 -33 -38 -78 -45 -100 -7 -22 -26 -59 -41 -82 -35 -50 -36 -64 -6 -99 l23 -27 -89 -86 c-198 -191 -333 -389 -399 -586 -20 -60 -23 -90 -23 -215 0 -137 2 -150 31 -232 60 -167 156 -309 318 -470 103 -103 275 -238 379 -299 l59 -34 57 -141 c125 -308 330 -630 736 -1154 178 -229 298 -393 388 -527 312 -466 447 -857 447 -1300 0 -112 3 -143 13 -143 20 0 386 187 505 258 424 253 867 604 1232 978 665 680 1125 1448 1314 2194 l34 135 93 83 c113 101 303 246 386 294 88 52 185 88 237 88 146 0 421 -167 698 -425 l71 -66 -31 -32 c-18 -18 -32 -42 -32 -53 0 -32 59 -113 87 -120 16 -4 22 -11 19 -21 -3 -8 -6 -38 -6 -66 0 -51 -1 -53 -48 -82 -81 -51 -210 -184 -278 -285 -225 -338 -242 -673 -55 -1065 59 -124 125 -231 278 -450 245 -352 381 -595 539 -965 29 -68 57 -126 61 -127 4 -2 35 59 67 134 156 363 319 655 535 958 137 193 190 276 255 405 155 303 190 568 109 825 -45 142 -142 309 -245 420 l-55 60 43 2 c125 6 111 60 -41 154 -38 24 -119 79 -180 123 -189 137 -199 143 -251 169 -102 51 -182 71 -289 72 -95 0 -100 1 -101 22 -2 33 -62 112 -90 119 -24 6 -37 0 -122 -62 -21 -16 -24 -15 -98 52 -178 161 -359 295 -510 375 -134 72 -222 101 -330 107 -86 4 -95 3 -176 -30 -112 -45 -221 -111 -369 -225 -66 -51 -121 -93 -122 -93 -2 0 1 39 6 88 12 122 2 486 -18 612 -58 375 -195 725 -412 1055 -181 274 -396 496 -630 649 -35 22 -63 44 -63 47 0 4 24 69 54 146 121 311 193 596 251 993 14 96 25 180 25 185 0 6 54 10 143 10 160 1 226 14 342 70 141 68 223 171 233 291 l5 64 -578 0 -578 0 5 -64z m-3631 -2978 c20 -15 48 -28 61 -28 l23 0 -41 -127 c-84 -254 -118 -475 -118 -753 0 -201 12 -326 45 -489 11 -52 18 -96 16 -97 -6 -6 -168 138 -243 215 -181 189 -284 391 -284 555 1 124 70 295 181 446 76 103 295 323 312 313 7 -3 28 -19 48 -35z m2696 -2509 c59 -22 106 -90 119 -168 l7 -41 -177 0 c-176 0 -176 0 -176 23 0 42 20 92 52 131 49 60 111 79 175 55z m-592 -281 c88 -22 174 -93 211 -173 29 -61 30 -85 5 -85 -12 0 -24 14 -35 43 -57 150 -235 223 -414 168 -115 -35 -187 -106 -207 -203 -6 -30 -32 -38 -42 -13 -13 36 20 109 76 166 100 100 251 136 406 97z m1270 0 c59 -14 118 -52 163 -104 44 -49 78 -124 69 -149 -11 -28 -27 -16 -51 38 -32 73 -77 121 -144 154 -50 25 -68 28 -152 28 -76 -1 -107 -6 -154 -24 -80 -32 -153 -104 -162 -160 -7 -44 -26 -67 -45 -56 -16 10 -3 81 22 122 82 132 273 196 454 151z"/>
 </g>
<g id="layer103" fill="#fcc608" stroke="none">
 <path d="M4352 8006 c9 -109 78 -205 198 -274 25 -14 47 -27 49 -28 1 -2 -7 -74 -19 -161 -54 -395 -127 -701 -242 -1003 -59 -156 -44 -145 -144 -99 -124 57 -330 123 -474 152 -188 38 -355 51 -569 44 -281 -9 -489 -47 -758 -136 -66 -23 -126 -41 -131 -41 -23 0 -194 506 -258 765 -28 114 -84 403 -84 434 0 4 29 26 64 48 70 45 138 122 156 179 7 20 13 60 14 88 l1 51 -572 3 -573 2 0 -57 c0 -149 128 -279 340 -345 65 -20 95 -23 232 -23 l157 0 6 -25 c2 -14 9 -56 15 -95 39 -252 121 -549 252 -913 39 -106 68 -195 66 -196 -1 -1 -55 -31 -118 -66 -273 -150 -509 -339 -707 -564 l-60 -69 -45 42 c-25 22 -71 54 -101 69 -31 16 -66 41 -77 55 -17 21 -30 27 -62 27 -69 0 -185 -68 -252 -149 -41 -49 -50 -75 -43 -129 3 -29 -3 -50 -28 -97 -18 -33 -38 -78 -45 -100 -7 -22 -26 -59 -41 -82 -35 -50 -36 -64 -6 -99 l23 -27 -89 -86 c-198 -191 -333 -389 -399 -586 -20 -60 -23 -90 -23 -215 0 -137 2 -150 31 -232 60 -167 156 -309 318 -470 103 -103 275 -238 379 -299 l59 -34 57 -141 c125 -308 330 -630 736 -1154 178 -229 298 -393 388 -527 312 -466 447 -857 447 -1300 0 -112 3 -143 13 -143 20 0 386 187 505 258 424 253 867 604 1232 978 665 680 1125 1448 1314 2194 l34 135 93 83 c113 101 303 246 386 294 88 52 185 88 237 88 146 0 421 -167 698 -425 l71 -66 -31 -32 c-18 -18 -32 -42 -32 -53 0 -32 59 -113 87 -120 16 -4 22 -11 19 -21 -3 -8 -6 -38 -6 -66 0 -51 -1 -53 -48 -82 -81 -51 -210 -184 -278 -285 -225 -338 -242 -673 -55 -1065 59 -124 125 -231 278 -450 245 -352 381 -595 539 -965 29 -68 57 -126 61 -127 4 -2 35 59 67 134 156 363 319 655 535 958 137 193 190 276 255 405 155 303 190 568 109 825 -45 142 -142 309 -245 420 l-55 60 43 2 c125 6 111 60 -41 154 -38 24 -119 79 -180 123 -189 137 -199 143 -251 169 -102 51 -182 71 -289 72 -95 0 -100 1 -101 22 -2 33 -62 112 -90 119 -24 6 -37 0 -122 -62 -21 -16 -24 -15 -98 52 -178 161 -359 295 -510 375 -134 72 -222 101 -330 107 -86 4 -95 3 -176 -30 -112 -45 -221 -111 -369 -225 -66 -51 -121 -93 -122 -93 -2 0 1 39 6 88 12 122 2 486 -18 612 -58 375 -195 725 -412 1055 -181 274 -396 496 -630 649 -35 22 -63 44 -63 47 0 4 24 69 54 146 121 311 193 596 251 993 14 96 25 180 25 185 0 6 54 10 143 10 160 1 226 14 342 70 141 68 223 171 233 291 l5 64 -578 0 -578 0 5 -64z m-3631 -2978 c20 -15 48 -28 61 -28 l23 0 -41 -127 c-84 -254 -118 -475 -118 -753 0 -201 12 -326 45 -489 11 -52 18 -96 16 -97 -6 -6 -168 138 -243 215 -181 189 -284 391 -284 555 1 124 70 295 181 446 76 103 295 323 312 313 7 -3 28 -19 48 -35z m1819 -1158 l0 -99 123 -3 122 -3 3 -117 3 -118 -126 0 -125 0 0 -105 0 -105 -135 0 -135 0 0 105 0 105 -120 0 -120 0 0 120 0 120 120 0 120 0 0 100 0 100 135 0 135 0 0 -100z m877 -1351 c59 -22 106 -90 119 -168 l7 -41 -177 0 c-176 0 -176 0 -176 23 0 42 20 92 52 131 49 60 111 79 175 55z m-592 -281 c88 -22 174 -93 211 -173 29 -61 30 -85 5 -85 -12 0 -24 14 -35 43 -57 150 -235 223 -414 168 -115 -35 -187 -106 -207 -203 -6 -30 -32 -38 -42 -13 -13 36 20 109 76 166 100 100 251 136 406 97z m1270 0 c59 -14 118 -52 163 -104 44 -49 78 -124 69 -149 -11 -28 -27 -16 -51 38 -32 73 -77 121 -144 154 -50 25 -68 28 -152 28 -76 -1 -107 -6 -154 -24 -80 -32 -153 -104 -162 -160 -7 -44 -26 -67 -45 -56 -16 10 -3 81 22 122 82 132 273 196 454 151z"/>
 </g>
<g id="layer104" fill="#f8f8f8" stroke="none">
 <path d="M4581 7546 c-54 -394 -128 -703 -243 -1006 -59 -156 -44 -145 -144 -99 -124 57 -330 123 -474 152 -188 38 -355 51 -569 44 -281 -9 -489 -47 -758 -136 -66 -23 -126 -41 -131 -41 -12 0 -116 279 -178 479 -57 184 -116 428 -144 596 -12 72 -23 131 -24 133 -2 1 -23 -6 -47 -17 -24 -11 -61 -23 -82 -26 -20 -4 -39 -11 -42 -15 -5 -9 26 -199 55 -334 43 -195 112 -426 212 -704 39 -106 68 -195 66 -196 -1 -1 -55 -31 -118 -66 -217 -119 -403 -256 -565 -416 -98 -96 -195 -205 -195 -217 0 -4 18 -16 40 -27 30 -15 41 -29 49 -57 6 -21 11 -44 11 -52 0 -7 12 -34 27 -60 31 -56 28 -80 -18 -137 -64 -81 -199 -176 -324 -226 -33 -14 -76 -41 -97 -61 -20 -21 -43 -37 -52 -37 -21 0 -37 -34 -80 -169 -78 -246 -110 -461 -110 -731 0 -201 12 -326 45 -489 11 -52 18 -96 16 -97 -6 -6 -168 138 -243 215 -140 146 -229 290 -264 426 -35 139 -21 245 54 400 61 125 149 240 292 381 l123 121 -51 39 c-28 21 -61 47 -74 57 l-23 18 -92 -88 c-200 -193 -335 -391 -401 -588 -20 -60 -23 -90 -23 -215 0 -137 2 -150 31 -232 60 -167 156 -309 318 -470 103 -103 275 -238 379 -299 l59 -34 57 -141 c125 -308 330 -630 736 -1154 178 -229 298 -393 388 -527 312 -466 447 -857 447 -1300 0 -112 3 -143 13 -143 20 0 386 187 505 258 424 253 867 604 1232 978 665 680 1125 1448 1314 2194 l34 135 93 83 c113 101 303 246 386 294 88 52 185 88 237 88 146 0 421 -167 698 -425 38 -36 74 -65 78 -65 9 0 134 99 138 109 3 9 -132 133 -238 218 -271 218 -494 330 -676 341 -86 4 -95 3 -176 -30 -112 -45 -221 -111 -369 -225 -66 -51 -121 -93 -122 -93 -2 0 1 39 6 88 12 122 2 486 -18 612 -58 375 -195 725 -412 1055 -181 274 -396 496 -630 649 -35 22 -63 44 -63 47 0 4 24 69 54 146 121 311 193 596 251 993 31 215 31 210 3 210 -13 0 -53 11 -89 23 l-67 23 -21 -160z m-2041 -3676 l0 -99 123 -3 122 -3 3 -117 3 -118 -126 0 -125 0 0 -105 0 -105 -135 0 -135 0 0 105 0 105 -120 0 -120 0 0 120 0 120 120 0 120 0 0 100 0 100 135 0 135 0 0 -100z m877 -1351 c59 -22 106 -90 119 -168 l7 -41 -177 0 c-176 0 -176 0 -176 23 0 42 20 92 52 131 49 60 111 79 175 55z m-592 -281 c88 -22 174 -93 211 -173 29 -61 30 -85 5 -85 -12 0 -24 14 -35 43 -57 150 -235 223 -414 168 -115 -35 -187 -106 -207 -203 -6 -30 -32 -38 -42 -13 -13 36 20 109 76 166 100 100 251 136 406 97z m1270 0 c59 -14 118 -52 163 -104 44 -49 78 -124 69 -149 -11 -28 -27 -16 -51 38 -32 73 -77 121 -144 154 -50 25 -68 28 -152 28 -76 -1 -107 -6 -154 -24 -80 -32 -153 -104 -162 -160 -7 -44 -26 -67 -45 -56 -16 10 -3 81 22 122 82 132 273 196 454 151z"/>
 <path d="M7360 3309 c-118 -20 -296 -95 -395 -164 -131 -93 -274 -271 -349 -437 -74 -163 -102 -373 -73 -543 43 -241 135 -429 394 -800 245 -352 381 -595 539 -965 29 -68 57 -126 61 -127 4 -2 35 59 67 134 156 363 319 655 535 958 272 383 373 602 401 870 17 165 -17 349 -92 500 -41 82 -126 210 -178 268 -102 114 -297 236 -455 283 -77 22 -112 27 -245 30 -85 1 -180 -1 -210 -7z"/>
 </g>

</svg>